<?xml version="1.0" encoding="iso-8859-1"?>
<!-- Generator: Adobe Illustrator 19.0.0, SVG Export Plug-In . SVG Version: 6.00 Build 0)  -->
<svg version="1.1" id="Capa_1" xmlns="http://www.w3.org/2000/svg" xmlns:xlink="http://www.w3.org/1999/xlink" x="0px" y="0px"
	 viewBox="0 0 512 512" style="enable-background:new 0 0 512 512;" xml:space="preserve">
<g>
	<g>
		<g>
			<path d="M486.4,0H25.6C11.468,0.015,0.015,11.468,0,25.6v460.8c0.015,14.132,11.468,25.585,25.6,25.6h460.8
				c14.132-0.015,25.585-11.468,25.6-25.6V25.6C511.985,11.468,500.532,0.015,486.4,0z M494.933,486.4
				c-0.005,4.711-3.822,8.529-8.533,8.533H25.6c-4.711-0.005-8.529-3.822-8.533-8.533V85.333h477.867V486.4z M494.933,68.267H17.067
				V25.6c0.005-4.711,3.822-8.529,8.533-8.533h460.8c4.711,0.005,8.529,3.822,8.533,8.533V68.267z"/>
			<path d="M68.267,34.133H51.2c-4.713,0-8.533,3.82-8.533,8.533S46.487,51.2,51.2,51.2h17.067c4.713,0,8.533-3.82,8.533-8.533
				S72.979,34.133,68.267,34.133z"/>
			<path d="M460.8,34.133h-17.067c-4.713,0-8.533,3.82-8.533,8.533s3.82,8.533,8.533,8.533H460.8c4.713,0,8.533-3.82,8.533-8.533
				S465.513,34.133,460.8,34.133z"/>
			<path d="M375.467,34.133H136.533c-4.713,0-8.533,3.82-8.533,8.533s3.82,8.533,8.533,8.533h238.933
				c4.713,0,8.533-3.82,8.533-8.533S380.18,34.133,375.467,34.133z"/>
			<path d="M443.271,415.432c12.499-13.606,11.903-34.688-1.345-47.567c-13.248-12.879-34.338-12.879-47.586,0
				c-13.248,12.879-13.844,33.96-1.345,47.567c-16.825,8.711-27.013,26.445-26.063,45.368c-0.001,2.263,0.898,4.434,2.499,6.035
				c1.6,1.6,3.771,2.499,6.035,2.499H460.8c2.263,0.001,4.434-0.898,6.035-2.499c1.6-1.6,2.499-3.771,2.499-6.035
				C470.284,441.877,460.096,424.143,443.271,415.432z M418.133,375.467c9.426,0,17.067,7.641,17.067,17.067
				c0,9.426-7.641,17.067-17.067,17.067c-9.421-0.011-17.056-7.646-17.067-17.067C401.067,383.108,408.708,375.467,418.133,375.467z
				 M384.754,452.267c2.624-16.007,17.239-27.216,33.379-25.6c16.14-1.616,30.755,9.593,33.379,25.6H384.754z"/>
			<path d="M354.988,411.308l-30.721-23.042V384c-0.011-9.421-7.645-17.056-17.067-17.067H59.733
				c-9.421,0.011-17.056,7.646-17.067,17.067v68.267c0.011,9.421,7.645,17.056,17.067,17.067H307.2
				c9.421-0.011,17.056-7.646,17.067-17.067V448l30.721-23.042c2.148-1.611,3.412-4.14,3.412-6.825S357.136,412.92,354.988,411.308z
				 M310.612,436.908c-2.149,1.611-3.413,4.139-3.412,6.825v8.533H59.733V384H307.2v8.533c-0.001,2.685,1.263,5.214,3.412,6.825
				l25.033,18.775L310.612,436.908z"/>
			<path d="M45.165,210.835c1.6,1.6,3.771,2.499,6.035,2.499h85.333c2.263,0.001,4.434-0.898,6.035-2.499
				c1.6-1.6,2.499-3.771,2.499-6.035c0.951-18.923-9.237-36.657-26.063-45.368c12.499-13.606,11.903-34.688-1.345-47.567
				c-13.248-12.879-34.338-12.879-47.586,0c-13.248,12.879-13.844,33.96-1.345,47.567c-16.825,8.711-27.013,26.445-26.063,45.368
				C42.666,207.063,43.565,209.234,45.165,210.835z M93.867,119.467c9.426,0,17.067,7.641,17.067,17.067S103.292,153.6,93.867,153.6
				c-9.421-0.011-17.056-7.646-17.067-17.067C76.8,127.108,84.441,119.467,93.867,119.467z M93.867,170.667
				c16.14-1.616,30.755,9.593,33.379,25.6H60.487C63.111,180.26,77.727,169.05,93.867,170.667z"/>
			<path d="M157.013,168.958L187.733,192v4.267c0.011,9.421,7.646,17.056,17.067,17.067h247.467
				c9.421-0.011,17.056-7.646,17.067-17.067V128c-0.011-9.421-7.646-17.056-17.067-17.067H204.8
				c-9.421,0.011-17.056,7.645-17.067,17.067v4.267l-30.721,23.042c-2.148,1.611-3.412,4.14-3.412,6.825
				C153.6,164.819,154.864,167.347,157.013,168.958z M201.388,143.358c2.149-1.611,3.414-4.14,3.412-6.825V128l247.467,0.025v68.242
				H204.8v-8.533c0.001-2.685-1.263-5.214-3.412-6.825l-25.033-18.775L201.388,143.358z"/>
			<path d="M45.165,338.835c1.6,1.6,3.771,2.499,6.035,2.499h85.333c2.263,0.001,4.434-0.898,6.035-2.499
				c1.6-1.6,2.499-3.771,2.499-6.035c0.951-18.923-9.237-36.657-26.063-45.368c12.499-13.606,11.903-34.688-1.345-47.567
				c-13.248-12.879-34.338-12.879-47.586,0c-13.248,12.879-13.844,33.96-1.345,47.567c-16.825,8.711-27.013,26.445-26.063,45.368
				C42.666,335.063,43.565,337.234,45.165,338.835z M93.867,247.467c9.426,0,17.067,7.641,17.067,17.067S103.292,281.6,93.867,281.6
				c-9.421-0.011-17.056-7.646-17.067-17.067C76.8,255.108,84.441,247.467,93.867,247.467z M93.867,298.667
				c16.14-1.616,30.755,9.593,33.379,25.6H60.487C63.111,308.26,77.727,297.05,93.867,298.667z"/>
			<path d="M157.013,296.958L187.733,320v4.267c0.011,9.421,7.646,17.056,17.067,17.067h247.467
				c9.421-0.011,17.056-7.646,17.067-17.067V256c-0.011-9.421-7.646-17.056-17.067-17.067H204.8
				c-9.421,0.011-17.056,7.645-17.067,17.067v4.267l-30.721,23.042c-2.148,1.611-3.412,4.14-3.412,6.825
				S154.864,295.347,157.013,296.958z M201.388,271.358c2.149-1.611,3.414-4.139,3.412-6.825V256l247.467,0.025v68.242H204.8v-8.533
				c0.001-2.685-1.263-5.214-3.412-6.825l-25.033-18.775L201.388,271.358z"/>
		</g>
	</g>
</g>
<g>
</g>
<g>
</g>
<g>
</g>
<g>
</g>
<g>
</g>
<g>
</g>
<g>
</g>
<g>
</g>
<g>
</g>
<g>
</g>
<g>
</g>
<g>
</g>
<g>
</g>
<g>
</g>
<g>
</g>
</svg>
