<svg id="Capa_1" enable-background="new 0 0 512 512" height="512" viewBox="0 0 512 512" width="512" xmlns="http://www.w3.org/2000/svg"><g><g><g><g><g><g id="XMLID_805_"><g id="XMLID_812_"><g id="XMLID_813_"><g id="XMLID_818_"><g id="XMLID_819_"><g id="XMLID_820_"><g id="XMLID_821_"><g id="XMLID_822_"><g id="XMLID_842_"><g id="XMLID_843_"><g id="XMLID_1933_"><g id="XMLID_1934_"><g id="XMLID_2216_"><g id="XMLID_2266_"><g id="XMLID_2267_"><circle cx="256" cy="256" fill="#0e4089" r="256"/></g></g></g></g></g></g></g></g></g></g></g></g></g></g></g></g></g></g></g><path d="m512 256c0-16.585-1.577-32.802-4.59-48.509l-72.64-72.641-303.172 253.014 124.303 124.136h.099c141.385 0 256-114.615 256-256z" fill="#002859"/><g><path d="m346.323 288.292s-30.208 149.002-90.333 149.002c-53.387 0-101.376-23.078-134.55-59.816-8.026-8.881-.322-20.559-6.48-30.908s-26.179-19.369-30.196-30.907c-6.512-18.689-10.056-38.779-10.056-59.672 0-26.179 29.101-39.178 39.092-61.652 9.991-22.475.872-54.426 18.623-70.961 32.37-30.207 75.826-48.669 123.568-48.669 95.977-.001 90.332 213.583 90.332 213.583z" fill="#bae6ef"/><path d="m396.907 291.8 5.46 71.169c-32.968 45.063-86.252 74.322-146.378 74.322h-.206v-362.585h.206c95.978 0 174.524 74.569 180.87 168.919.29 4.081-39.952 48.175-39.952 48.175z" fill="#7bd0e0"/><g><g><g><path d="m204.518 346.57c0 8.551-3.461 16.257-9.045 21.862-5.605 5.584-13.331 9.046-21.862 9.046h-52.172c-16.051-17.762-28.641-38.737-36.677-61.815h88.848c17.062-.001 30.908 13.846 30.908 30.907z" fill="#5fb77a"/></g></g></g><path d="m299.652 154.284c0 17.061-13.846 30.908-30.907 30.908h-5.048c-9.787 0-18.627 3.956-25.035 10.364-6.429 6.408-10.385 15.248-10.385 25.035 0 19.554-15.845 35.399-35.399 35.399h-118.171c0-52.357 22.212-99.543 57.715-132.614h136.322c8.531 0 16.257 3.462 21.841 9.046 5.605 5.605 9.067 13.311 9.067 21.862z" fill="#5fb77a"/><path d="m299.652 154.283c0 17.061-13.846 30.908-30.907 30.908h-5.048c-2.72 0-5.378.309-7.912.907v-62.721h12.96c8.531 0 16.257 3.462 21.841 9.046 5.604 5.603 9.066 13.309 9.066 21.86z" fill="#196d57"/><g><path d="m437.293 255.991c0 39.994-12.96 76.98-34.925 106.981h-61.073c-32.968 0-59.693-26.725-59.693-59.672 0-16.484 6.676-31.402 17.473-42.199 10.818-10.797 25.736-17.473 42.22-17.473h95.566c.288 4.079.432 8.2.432 12.363z" fill="#196d57"/></g><path d="m433.152 198.412c6.974-9.124 11.118-20.528 11.118-32.899 0-29.946-24.276-54.223-54.223-54.223-29.946 0-54.223 24.276-54.223 54.223 0 12.369 4.142 23.771 11.114 32.895l43.108 57.583z" fill="#bc2a38"/><ellipse cx="390.047" cy="165.513" fill="#f2b214" rx="20.921" ry="20.921" transform="matrix(.159 -.987 .987 .159 164.569 524.249)"/><path d="m206.339 290.935c6.974-9.124 11.118-20.528 11.118-32.899 0-29.946-24.276-54.223-54.223-54.223-29.946 0-54.223 24.276-54.223 54.223 0 12.369 4.142 23.771 11.114 32.895l43.108 57.583z" fill="#ed8c00"/><circle cx="163.234" cy="258.036" fill="#ffda3e" r="20.921"/></g></g></svg>