<svg id="Capa_1" enable-background="new 0 0 512 512" height="512" viewBox="0 0 512 512" width="512" xmlns="http://www.w3.org/2000/svg"><g><g><g><g><g><g id="XMLID_1926_"><g id="XMLID_1991_"><g id="XMLID_1992_"><g id="XMLID_1993_"><g id="XMLID_1994_"><g id="XMLID_1995_"><g id="XMLID_1996_"><g id="XMLID_2013_"><g id="XMLID_2014_"><g id="XMLID_2015_"><g id="XMLID_2016_"><g id="XMLID_2017_"><g id="XMLID_2018_"><g id="XMLID_2019_"><g id="XMLID_2020_"><circle cx="256" cy="256" fill="#fcee6b" r="256"/></g></g></g></g></g></g></g></g></g></g></g></g></g></g></g></g></g></g></g><path d="m512 256c0-33.542-6.461-65.572-18.19-94.927l-49.635-49.635-376.35 289.125 93.248 93.248c29.355 11.728 61.385 18.189 94.927 18.189 141.385 0 256-114.615 256-256z" fill="#ffd522"/><g><g><path d="m67.825 365.169h376.35v35.394h-376.35z" fill="#2ea37c"/></g><g><path d="m256 365.169h188.175v35.394h-188.175z" fill="#1a8463"/></g><g><path d="m67.825 333.493h376.35v35.394h-376.35z" fill="#1a8463"/></g><g><path d="m256 333.493h188.175v35.394h-188.175z" fill="#14684c"/></g><g><g><path d="m444.175 337.043h-376.35v-225.606h376.35z" fill="#2ea37c"/></g><g><path d="m256 111.437h188.175v225.605h-188.175z" fill="#1a8463"/></g><g><path d="m414.17 175.9v97.21c-18.68.08-33.79 15.24-33.79 33.93h-248.63c0-18.74-15.19-33.93-33.93-33.93v-97.21c18.74 0 33.93-15.19 33.93-33.93 0-.18 0-.35-.01-.53h248.65c-.01.18-.01.35-.01.53 0 18.69 15.11 33.85 33.79 33.93z" fill="#98d36a"/></g><g><g><g><path d="m380.38 141.97c0-.18 0-.35.01-.53h-124.39v165.6h124.38c0-18.69 15.11-33.85 33.79-33.93v-97.21c-18.68-.08-33.79-15.24-33.79-33.93z" fill="#44b788"/></g></g></g><g><circle cx="351.144" cy="224.24" fill="#1a8463" r="15.568"/><circle cx="160.846" cy="224.24" fill="#2ea37c" r="15.568"/></g><ellipse cx="256" cy="224.24" fill="#2ea37c" rx="40.619" ry="40.619" transform="matrix(.23 -.973 .973 .23 -21.058 421.872)"/><g><path d="m256 183.621v81.237c22.433 0 40.618-18.186 40.618-40.619s-18.185-40.618-40.618-40.618z" fill="#1a8463"/></g></g></g></g></svg>