<svg id="Layer_1" enable-background="new 0 0 512 512" height="512" viewBox="0 0 512 512" width="512" xmlns="http://www.w3.org/2000/svg"><g id="XMLID_13_"><g id="XMLID_764_"><g id="XMLID_787_"><g id="XMLID_1554_"><g id="XMLID_1555_"><g id="XMLID_1556_"><g id="XMLID_1557_"><g id="XMLID_1558_"><g id="XMLID_1559_"><g id="XMLID_1560_"><g id="XMLID_1561_"><g id="XMLID_1562_"><g id="XMLID_1563_"><g id="XMLID_1564_"><g id="XMLID_1565_"><circle id="XMLID_1566_" cx="256" cy="256" fill="#f4f1f1" r="256"/></g></g></g></g></g></g></g></g></g></g></g></g></g></g><path id="XMLID_357_" d="m511.942 260.553-198.117-197.553-203.599 370.745 65.351 65.351c25.293 8.363 52.326 12.904 80.423 12.904 139.862 0 253.511-112.164 255.942-251.447z" fill="#e7dfdd"/><g id="XMLID_2061_"><g id="XMLID_2163_"><g id="XMLID_2164_"><g id="XMLID_2165_"><g id="XMLID_2169_"><g id="XMLID_2172_"><g id="XMLID_2173_"><g id="XMLID_2175_"><g id="XMLID_2176_"><g id="XMLID_2177_"><g id="XMLID_2200_"><g id="XMLID_2201_"><g id="XMLID_2203_"><g id="XMLID_2205_"><g id="XMLID_2209_"><ellipse id="XMLID_2210_" cx="242.5" cy="134.96" fill="#ffd55c" rx="101.323" ry="101.323" transform="matrix(.707 -.707 .707 .707 -24.405 211.002)"/></g></g></g></g></g></g></g></g></g></g></g></g></g></g><g id="XMLID_2074_"><g id="XMLID_2075_"><g id="XMLID_2076_"><g id="XMLID_2077_"><g id="XMLID_2078_"><g id="XMLID_2080_"><g id="XMLID_2136_"><g id="XMLID_2137_"><g id="XMLID_2138_"><g id="XMLID_2139_"><g id="XMLID_2140_"><g id="XMLID_2141_"><g id="XMLID_2142_"><g id="XMLID_2160_"><path id="XMLID_2161_" d="m343.818 134.964c0 55.953-45.364 101.317-101.318 101.317v-202.646c55.954 0 101.318 45.364 101.318 101.329z" fill="#f4bc3d"/></g></g></g></g></g></g></g></g></g></g></g></g></g></g><path id="XMLID_2070_" d="m254.986 127.333c-1.84-.651-3.72-1.33-5.598-2.036v-31.006c4.362 1.221 6.971 3.39 7.276 3.653l5.466 5.042 10.17-11.026-5.513-5.085c-.39-.359-6.837-6.161-17.399-7.92v-13.542h-15v14.097c-.863.202-1.735.423-2.624.691-10.017 3.018-17.501 11.583-19.53 22.354-1.855 9.842 1.313 19.344 8.267 24.798 3.546 2.781 7.93 5.33 13.888 8.007v39.839c-4.997-.454-8.344-1.799-13.905-5.436l-6.276-4.106-8.212 12.553 6.276 4.106c8.633 5.647 14.598 7.428 22.117 7.922v14.27h15v-14.898c15.316-3.252 24.27-15.988 26.272-27.898 2.609-15.522-5.507-29.017-20.675-34.379zm-25.228-11.783c-2.492-1.955-3.585-5.965-2.783-10.217.69-3.666 2.998-8.021 7.414-10.107v23.365c-1.724-.98-3.294-1.992-4.631-3.041zm31.11 43.675c-.974 5.797-4.872 11.944-11.479 14.696v-32.66c.202.072.394.142.599.214 12.142 4.293 11.397 14.672 10.88 17.75z" fill="#e8a828"/><path id="XMLID_2062_" d="m254.99 127.333c-1.84-.65-3.72-1.33-5.6-2.04v-31c4.36 1.22 6.97 3.39 7.27 3.65l5.47 5.04 10.17-11.02-5.51-5.09c-.39-.36-6.84-6.16-17.4-7.92v-13.54h-6.89v139.09h6.89v-14.89c15.31-3.26 24.27-15.99 26.27-27.9 2.61-15.52-5.51-29.02-20.67-34.38zm5.88 31.89c-.98 5.8-4.87 11.95-11.48 14.7v-32.66c.2.07.39.14.6.21 12.14 4.29 11.4 14.67 10.88 17.75z" fill="#d38f18"/></g><g id="XMLID_3999_"><g id="XMLID_4001_"><g id="XMLID_4002_"><path id="XMLID_4007_" d="m370.771 446.082h-196.542c-29.321 0-53.311-23.99-53.311-53.311v-177.365c0-29.321 23.99-53.311 53.311-53.311h196.542c29.321 0 53.311 23.99 53.311 53.311v177.366c0 29.32-23.99 53.31-53.311 53.31z" fill="#173751"/><path id="XMLID_4006_" d="m340.771 446.082h-196.542c-29.321 0-53.311-23.99-53.311-53.311v-177.365c0-29.321 23.99-53.311 53.311-53.311h196.542c29.321 0 53.311 23.99 53.311 53.311v177.366c0 29.32-23.99 53.31-53.311 53.31z" fill="#39607f"/><path id="XMLID_4005_" d="m394.08 215.405v177.371c0 29.32-23.99 53.31-53.31 53.31h-97.2v-283.991h97.2c29.32 0 53.31 23.99 53.31 53.31z" fill="#254b70"/><path id="XMLID_4004_" d="m424.082 356.6h-81.201c-26.753 0-48.44-21.687-48.44-48.44v-8.14c0-26.753 21.687-48.44 48.44-48.44h81.201z" fill="#ff6d3b"/></g></g><path id="XMLID_4000_" d="m394.082 251.58h30v105.02h-30z" fill="#d8462a"/></g></g></svg>