<svg width="177" height="177" viewBox="0 0 177 177" fill="none" xmlns="http://www.w3.org/2000/svg">
<g clip-path="url(#clip0)">
<path d="M117.605 112.023H160.309V169.106H117.605V112.023Z" fill="#E83842"/>
<path d="M160.308 7.89448V130.511L32.8768 147.532L16.46 149.725V27.108C16.4951 16.4938 23.3862 7.53257 32.8768 4.112C35.5398 3.15456 38.4067 2.63196 41.3857 2.63196H155.045C156.501 2.63196 157.813 3.22073 158.768 4.17142C159.719 5.12615 160.308 6.43874 160.308 7.89448Z" fill="#FC5F61"/>
<path d="M32.8768 4.112V147.532L16.46 149.725V27.108C16.4951 16.4938 23.3862 7.53257 32.8768 4.112Z" fill="#E83842"/>
<path d="M152.238 163.84C146.322 155.422 146.322 144.196 152.238 135.778L133.644 128.056H58.212L31.3119 133.67L24.2952 140.686L22.1899 154.252L31.0783 167.118L49.5572 169.925L152.473 168.521L152.238 163.84Z" fill="#E6E6E6"/>
<path d="M26.9892 150.143C27.1688 157.807 33.617 163.843 41.2819 163.843H155.045C157.953 163.843 160.308 166.2 160.308 169.106C160.308 172.012 157.953 174.368 155.045 174.368H41.0199C34.2368 174.368 28.0979 171.617 23.6523 167.176C19.192 162.713 16.4371 156.54 16.4601 149.726C16.5047 136.134 27.794 125.249 41.3858 125.249H155.045C157.953 125.249 160.308 127.605 160.308 130.511C160.308 133.418 157.953 135.775 155.045 135.775H41.0199C33.1686 135.775 26.8042 142.251 26.9892 150.143Z" fill="#E83842"/>
<path d="M135.706 67.2906H59.5097C55.2654 67.2906 51.8232 63.8497 51.8232 59.6054V39.1914C51.8232 34.9471 55.2654 31.5049 59.5097 31.5049H135.706C139.952 31.5049 143.393 34.9471 143.393 39.1914V59.6054C143.393 63.8497 139.951 67.2906 135.706 67.2906Z" fill="#E6E6E6"/>
<path d="M160.309 20.9799C161.762 20.9799 162.94 19.801 162.94 18.3479V7.89445C162.94 3.54076 159.399 0 155.045 0H41.3859C26.2398 0 13.8782 12.1563 13.8282 27.108V149.726V149.733C13.808 157.022 16.6357 163.877 21.7929 169.037C26.9312 174.172 33.7588 177 41.0199 177H155.045C159.399 177 162.94 173.459 162.94 169.106V28.8743C162.94 27.4213 161.762 26.2424 160.309 26.2424C158.856 26.2424 157.677 27.4213 157.677 28.8743V123.07C156.853 122.777 155.969 122.618 155.045 122.618H77.6739C76.2195 122.618 75.042 123.795 75.042 125.249C75.042 126.702 76.2195 127.88 77.6739 127.88H155.045C156.497 127.88 157.677 129.061 157.677 130.511C157.677 131.963 156.497 133.143 155.045 133.143H41.0199C36.5001 133.143 32.2666 134.927 29.1013 138.168C25.9373 141.407 24.2533 145.681 24.3587 150.205C24.568 159.176 32.16 166.475 41.2819 166.475H155.045C156.497 166.475 157.677 167.655 157.677 169.106C157.677 170.557 156.497 171.737 155.045 171.737H41.0199C35.1646 171.737 29.6577 169.457 25.5133 165.316C21.3527 161.152 19.0718 155.618 19.0908 149.734C19.1313 137.684 29.1323 127.88 41.3859 127.88H67.1462C68.6006 127.88 69.7781 126.702 69.7781 125.249C69.7781 123.795 68.6006 122.618 67.1462 122.618H41.3859C32.2356 122.618 24.1075 127.058 19.0908 133.864V27.1174C19.1313 15.0664 29.1323 5.26252 41.3859 5.26252H155.045C156.497 5.26252 157.677 6.44277 157.677 7.89445V18.3479C157.677 19.801 158.856 20.9799 160.309 20.9799ZM29.6198 150.082C29.5483 146.987 30.7002 144.062 32.8662 141.846C35.0323 139.628 37.9289 138.405 41.0199 138.405H147.699C147.039 139.829 146.505 141.295 146.106 142.792H44.8794C43.4264 142.792 42.2475 143.969 42.2475 145.422C42.2475 146.875 43.4264 148.054 44.8794 148.054H145.245C145.17 149.222 145.17 150.394 145.245 151.562H44.8794C43.4264 151.562 42.2475 152.741 42.2475 154.194C42.2475 155.647 43.4264 156.826 44.8794 156.826H146.106C146.505 158.321 147.039 159.789 147.699 161.211H41.2819C34.9958 161.211 29.763 156.219 29.6198 150.082ZM155.045 161.211H153.662C149.376 154.239 149.376 145.379 153.662 138.405H155.045C155.969 138.405 156.853 138.245 157.677 137.953V161.663C156.853 161.372 155.969 161.211 155.045 161.211Z" fill="black"/>
<path d="M59.5095 28.8743C53.8202 28.8743 49.1924 33.5022 49.1924 39.1914V59.6054C49.1924 65.2933 53.8202 69.9225 59.5095 69.9225H135.706C141.395 69.9225 146.024 65.2933 146.024 59.6054V39.1914C146.024 33.5022 141.395 28.8743 135.706 28.8743H59.5095ZM140.76 39.1914V59.6054C140.76 62.3913 138.493 64.66 135.706 64.66H59.5095C56.7222 64.66 54.4549 62.3913 54.4549 59.6054V39.1914C54.4549 36.4042 56.7222 34.1368 59.5095 34.1368H135.706C138.493 34.1368 140.76 36.4042 140.76 39.1914Z" fill="black"/>
<path d="M129.71 52.3848H65.5069C64.0539 52.3848 62.875 53.5637 62.875 55.0168C62.875 56.4698 64.0539 57.6487 65.5069 57.6487H129.71C131.164 57.6487 132.341 56.4698 132.341 55.0168C132.341 53.5637 131.164 52.3848 129.71 52.3848Z" fill="black"/>
<path d="M129.71 41.1481H65.5069C64.0539 41.1481 62.875 42.327 62.875 43.7801C62.875 45.2331 64.0539 46.4106 65.5069 46.4106H129.71C131.164 46.4106 132.341 45.2331 132.341 43.7801C132.341 42.327 131.164 41.1481 129.71 41.1481Z" fill="black"/>
</g>
<defs>
<clipPath id="clip0">
<rect width="177" height="177" fill="white"/>
</clipPath>
</defs>
</svg>
