<svg width="500" height="500" viewBox="0 0 500 500" fill="none" xmlns="http://www.w3.org/2000/svg">
<circle cx="250" cy="250" r="250" fill="#FAFAFA"/>
<path d="M296.042 287.212H363.596V377.513H296.042V287.212Z" fill="#E83842"/>
<path d="M363.594 122.488V316.458L162.008 343.384L136.038 346.853V152.883C136.094 136.092 146.995 121.916 162.008 116.505C166.221 114.99 170.756 114.164 175.469 114.164H355.269C357.572 114.164 359.648 115.095 361.158 116.599C362.663 118.109 363.594 120.186 363.594 122.488Z" fill="#FC5F61"/>
<path d="M162.008 116.505V343.384L136.038 346.853V152.883C136.094 136.092 146.995 121.916 162.008 116.505Z" fill="#E83842"/>
<path d="M350.829 369.182C341.47 355.865 341.47 338.106 350.829 324.79L321.414 312.574H202.087L159.533 321.455L148.433 332.554L145.103 354.014L159.164 374.367L188.396 378.808L351.2 376.587L350.829 369.182Z" fill="#E6E6E6"/>
<path d="M152.695 347.514C152.979 359.638 163.179 369.186 175.305 369.186H355.269C359.869 369.186 363.595 372.915 363.595 377.512C363.595 382.109 359.869 385.836 355.269 385.836H174.89C164.16 385.836 154.449 381.484 147.416 374.459C140.36 367.399 136.002 357.634 136.039 346.854C136.109 325.353 153.968 308.134 175.469 308.134H355.269C359.869 308.134 363.595 311.861 363.595 316.458C363.595 321.057 359.869 324.785 355.269 324.785H174.89C162.47 324.785 152.402 335.03 152.695 347.514Z" fill="#E83842"/>
<path d="M324.676 216.449H204.14C197.426 216.449 191.98 211.005 191.98 204.291V171.998C191.98 165.284 197.426 159.838 204.14 159.838H324.676C331.393 159.838 336.836 165.284 336.836 171.998V204.291C336.836 211.005 331.391 216.449 324.676 216.449Z" fill="#E6E6E6"/>
<path d="M363.596 143.189C365.895 143.189 367.758 141.324 367.758 139.025V122.488C367.758 115.601 362.157 110 355.269 110H175.469C151.509 110 131.954 129.23 131.875 152.883V346.855V346.866C131.843 358.396 136.316 369.24 144.475 377.403C152.603 385.526 163.404 390 174.89 390H355.269C362.157 390 367.758 384.398 367.758 377.512V155.677C367.758 153.378 365.895 151.513 363.596 151.513C361.298 151.513 359.433 153.378 359.433 155.677V304.687C358.129 304.223 356.731 303.972 355.269 303.972H232.874C230.573 303.972 228.711 305.834 228.711 308.134C228.711 310.433 230.573 312.296 232.874 312.296H355.269C357.566 312.296 359.433 314.164 359.433 316.458C359.433 318.755 357.566 320.622 355.269 320.622H174.89C167.74 320.622 161.043 323.444 156.036 328.571C151.031 333.695 148.367 340.456 148.534 347.612C148.865 361.804 160.875 373.35 175.305 373.35H355.269C357.566 373.35 359.433 375.217 359.433 377.512C359.433 379.808 357.566 381.674 355.269 381.674H174.89C165.628 381.674 156.916 378.068 150.36 371.517C143.778 364.93 140.17 356.175 140.2 346.867C140.264 327.805 156.085 312.296 175.469 312.296H216.22C218.521 312.296 220.383 310.433 220.383 308.134C220.383 305.834 218.521 303.972 216.22 303.972H175.469C160.994 303.972 148.136 310.996 140.2 321.762V152.898C140.264 133.834 156.085 118.325 175.469 118.325H355.269C357.566 118.325 359.433 120.192 359.433 122.488V139.025C359.433 141.324 361.298 143.189 363.596 143.189ZM156.856 347.418C156.743 342.522 158.565 337.895 161.992 334.389C165.418 330.88 170.001 328.946 174.89 328.946H343.648C342.604 331.198 341.759 333.518 341.128 335.886H180.996C178.697 335.886 176.832 337.748 176.832 340.046C176.832 342.345 178.697 344.21 180.996 344.21H339.766C339.647 346.057 339.647 347.911 339.766 349.759H180.996C178.697 349.759 176.832 351.624 176.832 353.923C176.832 356.221 178.697 358.086 180.996 358.086H341.128C341.759 360.451 342.604 362.774 343.648 365.023H175.305C165.361 365.023 157.083 357.126 156.856 347.418ZM355.269 365.023H353.081C346.301 353.994 346.301 339.978 353.081 328.946H355.269C356.731 328.946 358.129 328.693 359.433 328.231V365.738C358.129 365.278 356.731 365.023 355.269 365.023Z" fill="black"/>
<path d="M204.139 155.677C195.139 155.677 187.819 162.998 187.819 171.998V204.291C187.819 213.289 195.139 220.612 204.139 220.612H324.676C333.676 220.612 340.999 213.289 340.999 204.291V171.998C340.999 162.998 333.676 155.677 324.676 155.677H204.139ZM332.671 171.998V204.291C332.671 208.698 329.085 212.287 324.676 212.287H204.139C199.73 212.287 196.143 208.698 196.143 204.291V171.998C196.143 167.588 199.73 164.002 204.139 164.002H324.676C329.085 164.002 332.671 167.588 332.671 171.998Z" fill="black"/>
<path d="M315.191 192.869H213.627C211.328 192.869 209.463 194.734 209.463 197.032C209.463 199.331 211.328 201.196 213.627 201.196H315.191C317.491 201.196 319.353 199.331 319.353 197.032C319.353 194.734 317.491 192.869 315.191 192.869Z" fill="black"/>
<path d="M315.191 175.093H213.627C211.328 175.093 209.463 176.958 209.463 179.256C209.463 181.555 211.328 183.418 213.627 183.418H315.191C317.491 183.418 319.353 181.555 319.353 179.256C319.353 176.958 317.491 175.093 315.191 175.093Z" fill="black"/>
</svg>
