<svg width="500" height="500" viewBox="0 0 500 500" fill="none" xmlns="http://www.w3.org/2000/svg">
<circle cx="250" cy="250" r="250" fill="#FAFAFA"/>
<path d="M250 463C367.637 463 463 367.637 463 250C463 132.363 367.637 37 250 37C132.363 37 37 132.363 37 250C37 367.637 132.363 463 250 463Z" fill="#FAFAFA"/>
<path d="M144.614 203.696H331.033C331.033 203.696 318.086 199.789 318.086 182.859H237.824H131.924C131.924 192.052 144.614 203.696 144.614 203.696Z" fill="black" fill-opacity="0.1"/>
<path d="M144.614 159.707H331.033C331.033 159.707 318.086 164.048 318.086 182.859H237.824H131.924C131.924 172.644 144.614 159.707 144.614 159.707Z" fill="black" fill-opacity="0.25"/>
<path d="M345.38 273.152H124.978C124.978 273.152 133.409 277.32 137.022 285.655C140.635 293.989 140.587 300.849 140.587 300.849L363.446 300.935L358.628 284.265L345.38 273.152Z" fill="black" fill-opacity="0.25"/>
<path d="M137.022 316.214C133.409 324.549 124.978 328.717 124.978 328.717H271.995V300.969H140.624C140.624 300.969 140.635 307.88 137.022 316.214Z" fill="black" fill-opacity="0.1"/>
<path d="M349.976 324.944L336.795 328.717H324.087C324.087 328.717 324.087 324.001 324.087 316.389C324.087 308.774 324.087 303.25 324.087 303.25H361.13V307.966L360.116 313.625L356.06 319.285L349.976 324.944Z" fill="#2F0C2B" fill-opacity="0.1"/>
<path fill-rule="evenodd" clip-rule="evenodd" d="M154.315 129.609C126.605 129.609 104.141 154.387 104.141 182.097C104.141 210.648 127.287 233.793 155.837 233.793H168.445C171.002 233.793 173.075 235.866 173.075 238.424C173.075 240.981 171.002 243.054 168.445 243.054H155.837C122.172 243.054 94.8805 215.763 94.8805 182.097C94.8805 149.273 121.49 120.348 154.315 120.348H326.094C336.494 120.348 344.924 128.778 344.924 139.177C344.924 149.577 336.494 160.322 326.094 160.322H158.062C146.174 160.322 136.536 169.96 136.536 181.848C136.536 193.737 146.174 203.374 158.062 203.374H325.085C336.043 203.374 344.924 212.257 344.924 223.214C344.924 234.171 336.043 243.054 325.085 243.054H316.021C313.463 243.054 311.39 240.981 311.39 238.424C311.39 235.866 313.463 233.793 316.021 233.793H325.085C330.926 233.793 335.663 229.057 335.663 223.214C335.663 217.371 330.926 212.635 325.085 212.635H158.062C141.059 212.635 127.275 198.851 127.275 181.848C127.275 164.845 141.059 151.061 158.062 151.061H326.094C331.378 151.061 335.663 144.462 335.663 139.177C335.663 133.893 331.378 129.609 326.094 129.609H154.315Z" fill="#2F0C2B"/>
<path fill-rule="evenodd" clip-rule="evenodd" d="M131.987 243.054C125.559 243.054 120.348 248.265 120.348 254.693C120.348 261.122 125.559 266.333 131.987 266.333H334.209C353.319 266.333 368.81 281.824 368.81 300.934C368.81 320.044 353.319 335.535 334.209 335.535H328.122C325.564 335.535 323.492 333.463 323.492 330.905C323.492 328.349 325.564 326.274 328.122 326.274H334.209C348.202 326.274 359.549 314.93 359.549 300.934C359.549 286.939 348.202 275.594 334.209 275.594H131.987C120.444 275.594 111.087 266.236 111.087 254.693C111.087 243.15 120.444 233.793 131.987 233.793H173.911C176.468 233.793 178.541 235.866 178.541 238.423C178.541 240.981 176.468 243.054 173.911 243.054H131.987ZM261.42 238.423C261.42 235.866 263.493 233.793 266.05 233.793H340.009C377.247 233.793 407.435 263.981 407.435 301.219C407.435 339.422 376.466 370.391 338.263 370.391H328.122C325.564 370.391 323.492 368.319 323.492 365.76C323.492 363.202 325.564 361.13 328.122 361.13H338.263C371.35 361.13 398.174 334.308 398.174 301.219C398.174 269.095 372.13 243.054 340.009 243.054H266.05C263.493 243.054 261.42 240.981 261.42 238.423ZM111.087 348.334C111.087 336.151 120.962 326.274 133.145 326.274H270.744C273.303 326.274 275.375 328.349 275.375 330.905C275.375 333.463 273.303 335.535 270.744 335.535H133.145C126.077 335.535 120.348 341.265 120.348 348.334C120.348 355.4 126.077 361.13 133.145 361.13H270.744C273.303 361.13 275.375 363.202 275.375 365.76C275.375 368.319 273.303 370.391 270.744 370.391H133.145C120.962 370.391 111.087 360.516 111.087 348.334Z" fill="#2F0C2B"/>
<path fill-rule="evenodd" clip-rule="evenodd" d="M277.783 305.566V402.36L292.315 386.3C295.07 383.257 299.854 383.257 302.609 386.3L302.613 386.302L317.141 402.36V305.566H277.783ZM268.522 303.25C268.522 299.414 271.631 296.305 275.467 296.305H319.457C323.293 296.305 326.402 299.414 326.402 303.25V408.37C326.402 414.721 318.574 417.749 314.305 413.029L297.462 394.412L280.619 413.029C276.349 417.749 268.522 414.721 268.522 408.37V303.25Z" fill="#2F0C2B"/>
<path fill-rule="evenodd" clip-rule="evenodd" d="M262.734 370.391C262.734 365.918 266.36 362.288 270.837 362.288H275.514V373.864H274.31V406.601L279.447 412.142L276.349 415.015C276.347 415.017 276.347 415.017 276.347 415.017C271.159 419.83 262.734 416.147 262.734 409.076V370.391ZM291.273 395.194L298.085 386.056L325.244 399.697V410.857C325.244 418.196 316.271 421.752 311.242 416.413L291.273 395.194Z" fill="black" fill-opacity="0.25"/>
<path fill-rule="evenodd" clip-rule="evenodd" d="M277.783 305.566V402.36L281.874 397.839L292.315 386.3C295.07 383.257 299.854 383.257 302.609 386.3L302.613 386.302L317.141 402.36V305.566H277.783ZM273.749 406.819C273.749 406.819 273.749 406.817 273.749 406.819V406.819ZM268.522 303.25C268.522 299.414 271.631 296.305 275.467 296.305H319.457C323.293 296.305 326.402 299.414 326.402 303.25V408.37C326.402 414.721 318.574 417.749 314.305 413.029L297.462 394.412L288.741 404.053L280.619 413.029C280.619 413.031 280.619 413.029 280.619 413.029C276.349 417.749 268.522 414.721 268.522 408.37V303.25Z" fill="#2F0C2B"/>
<path fill-rule="evenodd" clip-rule="evenodd" d="M243.054 300.935C243.054 298.377 245.127 296.305 247.685 296.305H358.815C361.374 296.305 363.446 298.377 363.446 300.935C363.446 303.493 361.374 305.566 358.815 305.566H247.685C245.127 305.566 243.054 303.493 243.054 300.935Z" fill="#2F0C2B"/>
</svg>
