<svg width="500" height="500" viewBox="0 0 500 500" fill="none" xmlns="http://www.w3.org/2000/svg">
<circle cx="250" cy="250" r="250" fill="#FAFAFA"/>
<path d="M256.016 383.984C330.013 383.984 390 323.998 390 250C390 176.002 330.013 116.016 256.016 116.016C182.018 116.016 122.031 176.002 122.031 250C122.031 323.998 182.018 383.984 256.016 383.984Z" fill="#69CDFF"/>
<path d="M254.61 306.071H211.566V328.619H254.61V306.071Z" fill="#445EA0"/>
<path d="M222.417 306.071H211.566V328.619H222.417V306.071Z" fill="#2E4C89"/>
<path d="M283.281 328.073H179.759C178.225 328.073 176.97 329.329 176.97 330.863V344.848C176.97 346.382 178.225 347.638 179.759 347.638H283.281V328.073Z" fill="#293D7C"/>
<path d="M187.821 344.848V330.863C187.821 329.329 189.076 328.073 190.611 328.073H179.759C178.225 328.073 176.97 329.329 176.97 330.863V344.848C176.97 346.382 178.225 347.638 179.759 347.638H190.61C189.076 347.638 187.821 346.382 187.821 344.848Z" fill="#1A2B63"/>
<path d="M353.389 142.246H112.79C111.256 142.246 110 143.502 110 145.036V303.829C110 305.364 111.256 306.619 112.79 306.619H283.281V223.076C283.281 220.966 284.998 219.248 287.109 219.248H356.179V145.036C356.179 143.502 354.923 142.246 353.389 142.246Z" fill="#293D7C"/>
<path d="M122.248 278.719C122.248 279.64 123.001 280.392 123.922 280.392H283.281V223.076C283.281 220.966 284.998 219.248 287.109 219.248H343.931V169.608H122.248V278.719Z" fill="white"/>
<path d="M133.099 278.719V169.608H122.248V278.719C122.248 279.64 123.001 280.392 123.922 280.392H134.773C133.852 280.392 133.099 279.639 133.099 278.719Z" fill="#D9EAFC"/>
<path d="M233.091 300.987C237.251 300.987 240.623 297.615 240.623 293.455C240.623 289.294 237.251 285.922 233.091 285.922C228.931 285.922 225.558 289.294 225.558 293.455C225.558 297.615 228.931 300.987 233.091 300.987Z" fill="#445EA0"/>
<path d="M283.281 232.033H254.064C253.162 232.033 252.424 232.771 252.424 233.674V266.289C252.424 267.191 253.162 267.93 254.064 267.93H283.281V232.033Z" fill="#C3DDF4"/>
<path d="M263.275 266.289V233.674C263.275 232.771 264.013 232.033 264.916 232.033H254.064C253.162 232.033 252.424 232.771 252.424 233.674V266.289C252.424 267.191 253.162 267.93 254.064 267.93H264.916C264.013 267.93 263.275 267.191 263.275 266.289Z" fill="#AEC1ED"/>
<path d="M287.109 219.248H312.603V183.492C312.603 181.988 311.373 180.758 309.869 180.758H156.311C154.807 180.758 153.576 181.988 153.576 183.492V219.873C153.576 221.377 154.807 222.607 156.311 222.607H283.313C283.545 220.717 285.158 219.248 287.109 219.248Z" fill="#C3DDF4"/>
<path d="M164.427 219.873V183.492C164.427 181.988 165.658 180.757 167.162 180.757H156.311C154.807 180.757 153.576 181.988 153.576 183.492V219.873C153.576 221.376 154.807 222.607 156.311 222.607H167.162C165.658 222.607 164.427 221.376 164.427 219.873Z" fill="#AEC1ED"/>
<path d="M342.257 156.475H123.922C123.001 156.475 122.248 157.228 122.248 158.15V170.155H343.931V158.15C343.931 157.228 343.178 156.475 342.257 156.475Z" fill="#FFAF10"/>
<path d="M134.773 156.475H123.922C123.001 156.475 122.248 157.228 122.248 158.15V170.155H133.099V158.15C133.099 157.228 133.852 156.475 134.773 156.475Z" fill="#FF9518"/>
<path d="M203.791 240.691H157.761C155.496 240.691 153.659 238.856 153.659 236.59C153.659 234.324 155.496 232.488 157.761 232.488H203.791C206.056 232.488 207.893 234.324 207.893 236.59C207.893 238.856 206.056 240.691 203.791 240.691Z" fill="#5DC1D8"/>
<path d="M203.791 254.083H157.761C155.496 254.083 153.659 252.247 153.659 249.981C153.659 247.716 155.496 245.88 157.761 245.88H203.791C206.056 245.88 207.893 247.716 207.893 249.981C207.893 252.247 206.056 254.083 203.791 254.083Z" fill="#5DC1D8"/>
<path d="M203.791 267.474H157.761C155.496 267.474 153.659 265.638 153.659 263.372C153.659 261.106 155.496 259.271 157.761 259.271H203.791C206.056 259.271 207.893 261.106 207.893 263.372C207.893 265.638 206.056 267.474 203.791 267.474Z" fill="#5DC1D8"/>
<path d="M239.916 240.691H216.222C213.957 240.691 212.12 238.856 212.12 236.59C212.12 234.324 213.957 232.488 216.222 232.488H239.916C242.181 232.488 244.017 234.324 244.017 236.59C244.017 238.856 242.181 240.691 239.916 240.691Z" fill="#5DC1D8"/>
<path d="M239.916 254.083H216.222C213.957 254.083 212.12 252.247 212.12 249.981C212.12 247.716 213.957 245.88 216.222 245.88H239.916C242.181 245.88 244.017 247.716 244.017 249.981C244.017 252.247 242.181 254.083 239.916 254.083Z" fill="#5DC1D8"/>
<path d="M239.916 267.474H216.222C213.957 267.474 212.12 265.638 212.12 263.372C212.12 261.106 213.957 259.271 216.222 259.271H239.916C242.181 259.271 244.017 261.106 244.017 263.372C244.017 265.638 242.181 267.474 239.916 267.474Z" fill="#5DC1D8"/>
<path d="M385.625 218.701C388.031 218.701 390 220.67 390 223.076V355.294C390 357.7 388.031 359.669 385.625 359.669H287.109C284.703 359.669 282.734 357.7 282.734 355.294V223.076C282.734 220.67 284.703 218.701 287.109 218.701H385.625Z" fill="#445EA0"/>
<path d="M294.607 342.49C293.103 342.49 291.873 341.26 291.873 339.756V229.864C291.873 228.36 293.103 227.13 294.607 227.13H378.127C379.631 227.13 380.862 228.36 380.862 229.864V339.756C380.862 341.26 379.631 342.49 378.127 342.49H294.607Z" fill="white"/>
<path d="M302.724 339.756V229.864C302.724 228.36 303.954 227.13 305.458 227.13H294.607C293.103 227.13 291.873 228.36 291.873 229.864V339.756C291.873 341.26 293.103 342.49 294.607 342.49H305.458C303.954 342.49 302.724 341.26 302.724 339.756Z" fill="#D9EAFC"/>
<path d="M331.248 353.428C329.744 353.428 328.513 352.197 328.513 350.694V349.63C328.513 348.126 329.744 346.896 331.248 346.896H341.487C342.991 346.896 344.221 348.126 344.221 349.63V350.694C344.221 352.197 342.991 353.428 341.487 353.428H331.248Z" fill="#445EA0"/>
<path d="M380.862 237.681V229.864C380.862 228.36 379.631 227.13 378.127 227.13H294.607C293.103 227.13 291.873 228.36 291.873 229.864V237.681H380.862Z" fill="#FFAF10"/>
<path d="M305.458 227.13H294.607C293.103 227.13 291.873 228.36 291.873 229.864V237.681H302.724V229.864C302.724 228.36 303.954 227.13 305.458 227.13Z" fill="#FF9518"/>
<path d="M355.007 287.697H317.727C315.462 287.697 313.626 285.861 313.626 283.596C313.626 281.33 315.462 279.494 317.727 279.494H355.007C357.272 279.494 359.109 281.33 359.109 283.596C359.109 285.861 357.272 287.697 355.007 287.697Z" fill="#5DC1D8"/>
<path d="M355.007 300.345H317.727C315.462 300.345 313.626 298.509 313.626 296.243C313.626 293.978 315.462 292.142 317.727 292.142H355.007C357.272 292.142 359.109 293.978 359.109 296.243C359.109 298.509 357.272 300.345 355.007 300.345Z" fill="#5DC1D8"/>
<path d="M355.007 312.991H317.727C315.462 312.991 313.626 311.155 313.626 308.89C313.626 306.624 315.462 304.788 317.727 304.788H355.007C357.272 304.788 359.109 306.624 359.109 308.89C359.109 311.155 357.272 312.991 355.007 312.991Z" fill="#5DC1D8"/>
<path d="M372.367 269.828C372.367 271.332 371.136 272.562 369.632 272.562H303.102C301.598 272.562 300.368 271.332 300.368 269.828V247.272C300.368 245.769 301.598 244.538 303.102 244.538H369.632C371.136 244.538 372.367 245.769 372.367 247.272V269.828Z" fill="#C3DDF4"/>
<path d="M311.219 269.828V247.272C311.219 245.769 312.449 244.538 313.953 244.538H303.102C301.598 244.538 300.368 245.769 300.368 247.272V269.828C300.368 271.332 301.598 272.562 303.102 272.562H313.953C312.449 272.562 311.219 271.332 311.219 269.828Z" fill="#AEC1ED"/>
<path d="M362.523 333.899C362.523 335.403 361.293 336.633 359.789 336.633H312.945C311.441 336.633 310.211 335.403 310.211 333.899V324.651C310.211 323.147 311.441 321.917 312.945 321.917H359.789C361.293 321.917 362.523 323.147 362.523 324.651V333.899Z" fill="#C3DDF4"/>
<path d="M321.062 333.899V324.651C321.062 323.147 322.292 321.917 323.796 321.917H312.945C311.441 321.917 310.211 323.147 310.211 324.651V333.899C310.211 335.403 311.441 336.633 312.945 336.633H323.796C322.292 336.633 321.062 335.403 321.062 333.899Z" fill="#AEC1ED"/>
</svg>
