<svg width="500" height="500" viewBox="0 0 500 500" fill="none" xmlns="http://www.w3.org/2000/svg">
<circle cx="250" cy="250" r="250" fill="#FAFAFA"/>
<path d="M337.117 202.885C337.117 180.39 319.184 162.19 297.181 162.504C275.728 162.81 258.326 180.959 258.367 202.965C258.352 209.429 259.878 215.804 262.821 221.56C265.763 227.316 270.037 232.288 275.286 236.061C276.15 236.69 276.852 237.516 277.334 238.471C277.815 239.426 278.062 240.481 278.055 241.55L278.073 258.75H317.448L317.429 241.55C317.422 240.479 317.671 239.422 318.154 238.466C318.637 237.51 319.341 236.683 320.208 236.054C325.465 232.272 329.743 227.289 332.684 221.519C335.625 215.75 337.145 209.361 337.117 202.885V202.885Z" fill="#F7B030"/>
<path d="M315.242 250H280.242C275.409 250 271.492 253.918 271.492 258.75C271.492 263.582 275.409 267.5 280.242 267.5H315.242C320.074 267.5 323.992 263.582 323.992 258.75C323.992 253.918 320.074 250 315.242 250Z" fill="#C3C6C7"/>
<path d="M280.242 267.5H315.242V276.25C315.242 278.571 314.32 280.796 312.679 282.437C311.038 284.078 308.813 285 306.492 285H288.992C286.672 285 284.446 284.078 282.805 282.437C281.164 280.796 280.242 278.571 280.242 276.25V267.5Z" fill="#DADCDE"/>
<path d="M306.875 350.625H368.125C370.446 350.625 372.671 351.547 374.312 353.188C375.953 354.829 376.875 357.054 376.875 359.375V368.125C376.875 370.446 375.953 372.671 374.312 374.312C372.671 375.953 370.446 376.875 368.125 376.875H257.745C255.519 376.875 169.101 359.375 166.875 359.375H149.375V280.625H188.75C210.625 280.625 254.375 320 254.375 320L298.125 333.125C298.125 333.125 306.875 337.5 306.875 341.875V350.625C306.875 352.946 305.953 355.171 304.312 356.812C302.671 358.453 300.446 359.375 298.125 359.375L254.375 350.625L223.75 333.125" fill="#F7CCA9"/>
<path d="M123.125 271.875H149.375V368.125H123.125V271.875Z" fill="#2D85CC"/>
<path d="M322.75 239.615C328.074 235.751 332.495 230.777 335.708 225.036C338.92 219.295 340.847 212.925 341.356 206.366C341.864 199.807 340.941 193.216 338.651 187.049C336.362 180.882 332.759 175.286 328.094 170.648C324.029 166.597 319.193 163.402 313.872 161.252C308.552 159.102 302.854 158.04 297.116 158.129C273.29 158.468 253.944 178.585 253.99 202.972C253.986 210.131 255.684 217.187 258.945 223.56C262.206 229.932 266.935 235.438 272.743 239.622C273.041 239.846 273.28 240.138 273.443 240.473C273.605 240.809 273.686 241.178 273.677 241.55V247.391C271.504 248.644 269.736 250.494 268.582 252.721C267.428 254.949 266.937 257.461 267.168 259.959C267.398 262.457 268.34 264.836 269.881 266.816C271.423 268.795 273.499 270.29 275.865 271.125V276.25C275.869 279.73 277.253 283.066 279.714 285.526C282.174 287.987 285.51 289.371 288.99 289.375H306.49C309.97 289.371 313.306 287.987 315.766 285.526C318.227 283.066 319.611 279.73 319.615 276.25V271.122C321.981 270.288 324.057 268.792 325.599 266.813C327.14 264.834 328.082 262.454 328.312 259.956C328.543 257.458 328.052 254.946 326.898 252.719C325.744 250.491 323.976 248.641 321.802 247.388V241.55C321.795 241.175 321.877 240.804 322.042 240.468C322.207 240.131 322.449 239.839 322.75 239.615V239.615ZM262.742 202.957C262.705 183.335 278.182 167.151 297.243 166.879C297.407 166.879 297.576 166.875 297.743 166.875C306.819 166.875 315.526 170.474 321.953 176.883C325.709 180.625 328.609 185.137 330.453 190.108C332.297 195.079 333.041 200.391 332.634 205.677C332.226 210.963 330.677 216.098 328.093 220.728C325.509 225.358 321.952 229.372 317.666 232.494C316.234 233.529 315.068 234.891 314.266 236.466C313.464 238.041 313.049 239.784 313.055 241.552V245.625H282.43V241.55C282.437 239.784 282.023 238.042 281.222 236.468C280.422 234.894 279.257 233.534 277.826 232.5C273.149 229.124 269.343 224.685 266.72 219.548C264.097 214.411 262.734 208.724 262.742 202.957V202.957ZM306.492 280.625H288.992C287.832 280.624 286.72 280.162 285.9 279.342C285.08 278.522 284.618 277.41 284.617 276.25V271.875H310.867V276.25C310.866 277.41 310.404 278.522 309.584 279.342C308.764 280.162 307.652 280.624 306.492 280.625V280.625ZM315.242 263.125H280.242C279.082 263.125 277.969 262.664 277.149 261.843C276.328 261.023 275.867 259.91 275.867 258.75C275.867 257.59 276.328 256.477 277.149 255.656C277.969 254.836 279.082 254.375 280.242 254.375H315.242C316.402 254.375 317.515 254.836 318.336 255.656C319.156 256.477 319.617 257.59 319.617 258.75C319.617 259.91 319.156 261.023 318.336 261.843C317.515 262.664 316.402 263.125 315.242 263.125Z" fill="black"/>
<path d="M304.835 185.766C307.586 186.92 310.04 188.682 312.014 190.919C313.988 193.157 315.429 195.812 316.232 198.685C316.559 199.786 317.307 200.715 318.313 201.269C319.32 201.824 320.504 201.96 321.61 201.649C322.716 201.338 323.655 200.604 324.225 199.606C324.794 198.608 324.948 197.426 324.653 196.315C323.487 192.163 321.396 188.329 318.537 185.099C315.678 181.87 312.126 179.329 308.147 177.667C307.073 177.227 305.868 177.232 304.798 177.681C303.728 178.13 302.88 178.985 302.441 180.059C302.001 181.133 302.007 182.338 302.455 183.408C302.904 184.478 303.76 185.326 304.834 185.765L304.835 185.766Z" fill="black"/>
<path d="M302.117 145V136.25C302.117 135.09 301.656 133.977 300.836 133.156C300.015 132.336 298.903 131.875 297.742 131.875C296.582 131.875 295.469 132.336 294.649 133.156C293.828 133.977 293.367 135.09 293.367 136.25V145C293.367 146.16 293.828 147.273 294.649 148.094C295.469 148.914 296.582 149.375 297.742 149.375C298.903 149.375 300.015 148.914 300.836 148.094C301.656 147.273 302.117 146.16 302.117 145V145Z" fill="black"/>
<path d="M272.831 154.672C273.56 154.67 274.277 154.487 274.917 154.139C275.557 153.79 276.1 153.287 276.496 152.676C276.893 152.065 277.13 151.364 277.187 150.638C277.245 149.911 277.12 149.182 276.824 148.516L273.265 140.522C272.793 139.462 271.919 138.633 270.836 138.217C269.752 137.802 268.548 137.833 267.488 138.305C266.428 138.777 265.599 139.651 265.183 140.734C264.767 141.817 264.799 143.021 265.271 144.081L268.83 152.075C269.174 152.849 269.735 153.506 270.446 153.967C271.156 154.428 271.985 154.672 272.831 154.672Z" fill="black"/>
<path d="M252.223 169.641C253.108 169.641 253.972 169.373 254.701 168.872C255.431 168.371 255.991 167.661 256.308 166.834C256.626 166.008 256.685 165.105 256.478 164.245C256.272 163.384 255.809 162.607 255.151 162.014L248.649 156.16C247.786 155.383 246.651 154.981 245.492 155.042C244.333 155.103 243.245 155.622 242.469 156.484C241.693 157.347 241.291 158.483 241.352 159.642C241.413 160.8 241.931 161.888 242.794 162.664L249.296 168.516C250.098 169.241 251.141 169.642 252.223 169.641V169.641Z" fill="black"/>
<path d="M243.65 188.674C244.009 187.57 243.914 186.37 243.387 185.336C242.86 184.302 241.944 183.52 240.841 183.161L232.519 180.458C231.972 180.277 231.394 180.205 230.818 180.248C230.243 180.29 229.682 180.446 229.167 180.707C228.653 180.967 228.195 181.327 227.819 181.765C227.444 182.203 227.159 182.711 226.981 183.259C226.803 183.808 226.735 184.386 226.781 184.961C226.827 185.536 226.987 186.096 227.25 186.609C227.514 187.122 227.876 187.578 228.316 187.951C228.757 188.323 229.266 188.605 229.816 188.78L238.138 191.484C238.684 191.663 239.26 191.731 239.833 191.686C240.406 191.642 240.965 191.484 241.477 191.223C241.989 190.962 242.444 190.603 242.817 190.166C243.19 189.728 243.473 189.222 243.65 188.675V188.674Z" fill="black"/>
<path d="M236.37 208.302L227.668 209.217C227.093 209.273 226.536 209.442 226.027 209.715C225.519 209.988 225.069 210.358 224.704 210.805C224.339 211.253 224.067 211.768 223.902 212.321C223.737 212.874 223.683 213.454 223.743 214.028C223.804 214.602 223.977 215.158 224.253 215.665C224.529 216.172 224.903 216.619 225.353 216.98C225.803 217.342 226.32 217.611 226.874 217.772C227.428 217.933 228.009 217.983 228.582 217.918L237.285 217.003C238.433 216.876 239.485 216.299 240.209 215.398C240.934 214.498 241.273 213.347 241.152 212.198C241.031 211.048 240.46 209.994 239.564 209.263C238.668 208.533 237.52 208.188 236.37 208.302V208.302Z" fill="black"/>
<path d="M358.199 217.003L366.901 217.918C368.051 218.033 369.201 217.688 370.098 216.959C370.996 216.229 371.567 215.173 371.688 214.023C371.809 212.872 371.47 211.721 370.744 210.82C370.019 209.919 368.966 209.343 367.816 209.216L359.114 208.301C358.54 208.237 357.96 208.288 357.406 208.449C356.853 208.61 356.336 208.879 355.887 209.241C355.438 209.603 355.064 210.049 354.788 210.556C354.512 211.062 354.339 211.618 354.279 212.192C354.219 212.766 354.272 213.345 354.437 213.898C354.602 214.451 354.874 214.966 355.238 215.413C355.602 215.86 356.052 216.231 356.56 216.504C357.068 216.776 357.625 216.946 358.199 217.003V217.003Z" fill="black"/>
<path d="M355.993 191.699C356.452 191.698 356.909 191.626 357.346 191.483L365.667 188.78C366.214 188.603 366.72 188.319 367.157 187.946C367.594 187.573 367.953 187.117 368.214 186.605C368.474 186.094 368.632 185.535 368.677 184.962C368.722 184.39 368.654 183.814 368.476 183.267C368.299 182.721 368.015 182.215 367.642 181.778C367.269 181.341 366.814 180.982 366.302 180.721C365.79 180.46 365.232 180.303 364.659 180.258C364.086 180.213 363.51 180.281 362.964 180.458L354.642 183.161C353.651 183.483 352.806 184.147 352.261 185.035C351.716 185.924 351.506 186.978 351.669 188.007C351.832 189.037 352.357 189.974 353.149 190.651C353.942 191.328 354.95 191.699 355.993 191.699V191.699Z" fill="black"/>
<path d="M346.187 168.515L352.689 162.664C353.551 161.887 354.07 160.8 354.131 159.641C354.191 158.483 353.789 157.347 353.013 156.485C352.236 155.622 351.149 155.104 349.99 155.043C348.831 154.982 347.696 155.385 346.834 156.161L340.332 162.014C339.485 162.795 338.981 163.878 338.928 165.028C338.874 166.178 339.276 167.303 340.047 168.158C340.818 169.014 341.894 169.531 343.044 169.598C344.193 169.665 345.323 169.276 346.187 168.515Z" fill="black"/>
<path d="M322.652 154.672C323.498 154.672 324.326 154.427 325.036 153.966C325.746 153.505 326.307 152.848 326.651 152.075L330.21 144.081C330.682 143.021 330.714 141.817 330.298 140.734C329.882 139.651 329.053 138.777 327.993 138.305C326.933 137.833 325.729 137.802 324.645 138.217C323.562 138.633 322.688 139.462 322.216 140.522L318.657 148.516C318.362 149.182 318.236 149.911 318.294 150.637C318.351 151.364 318.588 152.065 318.985 152.676C319.381 153.287 319.924 153.79 320.564 154.139C321.204 154.487 321.921 154.67 322.65 154.672H322.652Z" fill="black"/>
<path d="M368.125 341.875H311.25V337.5C311.25 330.931 302.701 326.147 300.082 324.837C299.857 324.725 299.623 324.632 299.382 324.559L256.562 311.713C253.852 309.319 244.166 300.914 232.324 292.387C213.418 278.776 198.758 271.875 188.75 271.875H153.75V267.5C153.75 266.34 153.289 265.227 152.469 264.406C151.648 263.586 150.535 263.125 149.375 263.125H123.125C121.965 263.125 120.852 263.586 120.031 264.406C119.211 265.227 118.75 266.34 118.75 267.5V363.75C118.75 364.91 119.211 366.023 120.031 366.844C120.852 367.664 121.965 368.125 123.125 368.125H149.375C150.535 368.125 151.648 367.664 152.469 366.844C153.289 366.023 153.75 364.91 153.75 363.75V359.375H166.671C169.4 359.738 191.727 364.146 211.463 368.042C250.938 375.836 256.514 376.875 257.745 376.875H368.125C371.605 376.871 374.941 375.487 377.401 373.026C379.862 370.566 381.246 367.23 381.25 363.75V355C381.246 351.52 379.862 348.184 377.401 345.724C374.941 343.263 371.605 341.879 368.125 341.875V341.875ZM145 359.375H127.5V271.875H145V359.375ZM372.5 363.75C372.499 364.91 372.037 366.022 371.217 366.842C370.397 367.662 369.285 368.124 368.125 368.125H257.949C255.22 367.762 232.893 363.354 213.16 359.458C173.682 351.664 168.106 350.625 166.875 350.625H153.75V280.625H188.75C205.304 280.625 239.622 308.237 251.449 318.877C251.929 319.309 252.499 319.63 253.118 319.816L296.485 332.826C299.209 334.252 302.081 336.541 302.497 337.633V346.25C302.496 347.348 302.083 348.405 301.339 349.212C300.596 350.02 299.576 350.519 298.482 350.611L255.929 342.099L225.921 324.951C225.422 324.665 224.871 324.481 224.301 324.407C223.731 324.334 223.151 324.374 222.596 324.525C222.042 324.676 221.522 324.935 221.067 325.287C220.612 325.639 220.231 326.077 219.946 326.576C219.661 327.076 219.477 327.626 219.404 328.197C219.332 328.767 219.373 329.346 219.525 329.901C219.676 330.456 219.936 330.975 220.289 331.429C220.641 331.884 221.08 332.264 221.579 332.549L252.204 350.049C252.613 350.282 253.056 350.448 253.517 350.541L297.267 359.291C297.55 359.347 297.837 359.375 298.125 359.375C300.839 359.372 303.485 358.529 305.7 356.963C307.916 355.396 309.593 353.182 310.5 350.625H368.125C369.285 350.626 370.397 351.088 371.217 351.908C372.037 352.728 372.499 353.84 372.5 355V363.75Z" fill="black"/>
</svg>
