<svg width="187" height="187" viewBox="0 0 187 187" fill="none" xmlns="http://www.w3.org/2000/svg">
<path d="M148.202 3.65381C148.202 3.65381 119.804 5.2831 96.4062 43.3502C96.1151 43.8239 95.8312 44.2947 95.5487 44.7669L98.0654 60.2651H87.5692C83.6815 69.3746 81.6442 77.6081 81.1748 84.6431L89.8477 93.5015H81.4829C83.0623 103.785 89.0516 109.93 97.9256 110.185C110.622 110.55 122.599 105.28 128.535 79.0875C129.142 76.4139 129.851 73.4207 130.634 70.2092L121.258 69.5786L132.362 63.2327C138.828 37.4979 148.202 3.65381 148.202 3.65381Z" fill="#535FE1"/>
<path d="M108.831 183.348C108.831 183.348 110.777 179.2 110.727 179.314C111.07 178.534 114.091 172.055 120.688 172.055C123.844 172.055 126.436 173.085 130.731 174.795C139.294 178.2 152.237 183.348 180.587 183.348H183.347L163.649 157.721C149.773 156.345 142.296 153.37 136.429 151.037C131.456 149.058 126.757 147.191 120.688 147.191C105.868 147.191 96.6243 160.291 93.4998 168.032C90.3753 160.291 81.1318 147.191 66.3113 147.191C60.2421 147.191 55.544 149.058 50.572 151.037C44.704 153.37 37.2282 156.345 23.3521 157.721L3.65378 183.348H6.413C34.7643 183.348 47.7058 178.2 56.2702 174.795C60.5632 173.085 63.1555 172.055 66.3113 172.055C72.9083 172.055 75.9301 178.534 76.2725 179.314C76.2225 179.2 78.1686 183.348 78.1686 183.348H108.831Z" fill="#EDF2FA"/>
<path d="M186.242 181.122L166.544 155.496C165.93 154.695 165.013 154.186 164.008 154.086C150.645 152.761 143.51 149.923 137.774 147.642C132.701 145.624 127.457 143.538 120.688 143.538C110.379 143.538 102.498 149.036 97.1521 155.266V155.13C100.13 148.265 108.066 137.432 120.396 137.432C125.7 137.432 129.831 139.076 134.617 140.979C138.61 142.567 143.581 144.544 150.847 146.071C152.822 146.486 154.758 145.222 155.173 143.247C155.587 141.274 154.323 139.337 152.349 138.923C145.697 137.525 141.246 135.754 137.315 134.191C132.293 132.193 127.1 130.128 120.396 130.128C107.56 130.128 98.526 138.729 93.4998 146.563C88.4736 138.729 79.4397 130.128 66.6023 130.128C59.8997 130.128 54.7051 132.193 49.6818 134.192C44.0135 136.446 36.9585 139.253 23.7445 140.562C21.7371 140.762 20.2719 142.55 20.4702 144.557C20.6699 146.565 22.459 148.03 24.4664 147.831C38.7019 146.419 46.6087 143.275 52.3825 140.979C57.1662 139.076 61.2979 137.432 66.6023 137.432C78.9333 137.432 86.8714 148.267 89.8475 155.132V155.266C84.5002 149.036 76.6206 143.537 66.3099 143.537C59.5431 143.537 54.2971 145.624 49.2209 147.643C43.4885 149.923 36.355 152.761 22.9897 154.086C21.9868 154.186 21.0694 154.695 20.4545 155.496L0.757584 181.122C-0.0912989 182.225 -0.238248 183.714 0.376657 184.963C0.991562 186.209 2.26132 187 3.65234 187H183.347C184.738 187 186.008 186.209 186.623 184.963C187.238 183.714 187.091 182.225 186.242 181.122ZM120.688 150.842C126.057 150.842 130.236 152.504 135.078 154.43C140.693 156.664 148.308 159.692 161.707 161.188L175.894 179.645C151.485 179.119 139.9 174.511 132.08 171.4C127.542 169.596 124.545 168.403 120.688 168.403C113.939 168.403 109.312 173.469 107.394 177.821C107.377 177.855 107.36 177.889 107.343 177.925L106.511 179.695H97.1521V168.765C100.162 161.817 108.199 150.842 120.688 150.842ZM25.2924 161.188C38.6919 159.692 46.3048 156.663 51.9245 154.428C56.7624 152.504 60.9427 150.842 66.3099 150.842C78.7991 150.842 86.8371 161.817 89.8475 168.765V179.695H80.4869L79.6566 177.925C79.6395 177.889 79.6224 177.855 79.6052 177.821C77.6863 173.469 73.061 168.403 66.3113 168.403C62.4549 168.403 59.4575 169.596 54.9192 171.4C47.0994 174.511 35.5133 179.119 11.1054 179.645L25.2924 161.188ZM57.6199 178.187C61.6403 176.588 63.8545 175.708 66.3099 175.708C69.4614 175.708 71.4403 178.187 72.3533 179.695H53.755C55.1446 179.172 56.4229 178.664 57.6199 178.187ZM114.646 179.695C115.559 178.187 117.538 175.708 120.688 175.708C123.145 175.708 125.359 176.588 129.381 178.189C130.577 178.664 131.856 179.172 133.245 179.695H114.646Z" fill="black"/>
<path d="M162.404 147.819L162.536 147.831C162.658 147.843 162.779 147.85 162.897 147.85C164.755 147.85 166.343 146.44 166.528 144.554C166.725 142.547 165.259 140.759 163.251 140.562L163.121 140.55C161.114 140.35 159.326 141.818 159.128 143.825C158.93 145.833 160.396 147.62 162.404 147.819Z" fill="black"/>
<path d="M81.1719 89.8619C80.2232 89.9432 79.3372 90.3927 78.7123 91.1217C78.0175 91.9306 77.7122 93.0021 77.8734 94.055C79.3871 103.915 84.6345 110.652 92.2959 112.962C92.1204 114.343 91.9577 115.725 91.8122 117.112L89.8676 135.657C89.6579 137.663 91.1131 139.461 93.1191 139.671C93.2489 139.685 93.3773 139.691 93.5043 139.691C95.3504 139.691 96.9355 138.297 97.1324 136.419L99.077 117.874C99.2182 116.525 99.3766 115.183 99.5449 113.843C116.534 113.634 126.906 102.801 132.098 79.895C132.676 77.3469 133.376 74.3794 134.182 71.0738C134.438 70.0266 134.218 68.9209 133.58 68.0506C133.343 67.7281 133.058 67.4499 132.738 67.2245L134.175 66.4027C135.038 65.9105 135.663 65.0859 135.904 64.1215C142.286 38.7263 151.628 4.96633 151.722 4.6282C152.037 3.49255 151.785 2.27558 151.044 1.35964C150.305 0.442276 149.164 -0.0642016 147.993 0.00713314C146.756 0.0770415 117.414 2.19711 93.296 41.4356C92.9964 41.9221 92.7053 42.4043 92.4171 42.8879C91.9734 43.627 91.8065 44.5001 91.9435 45.3504L93.7725 56.6113H87.5707C86.1069 56.6113 84.7857 57.4845 84.2108 58.8298C80.3002 67.9935 78.0532 76.5951 77.531 84.3991C77.4611 85.4363 77.8377 86.455 78.5653 87.1983L81.1719 89.8619ZM129.2 60.8329L119.446 66.407C118.048 67.206 117.337 68.8267 117.698 70.3961C118.059 71.9654 119.406 73.1139 121.012 73.2224L126.07 73.5619C125.668 75.2568 125.301 76.8333 124.973 78.28C119.701 101.541 109.966 106.133 100.615 106.521C105.974 74.2082 119.534 44.2005 140.283 18.7725C137.096 30.5285 132.746 46.7957 129.2 60.8329ZM90.0117 63.9174H98.0654C99.1355 63.9174 100.153 63.4466 100.847 62.6306C101.541 61.8145 101.842 60.7359 101.671 59.6787L99.3694 45.5045C99.4179 45.4232 99.4679 45.3433 99.5178 45.262C111.033 26.528 123.727 17.2045 132.349 12.6819C134.391 11.6105 136.305 10.753 138.053 10.0625C125.485 24.6547 115.173 40.9662 107.386 58.6016C100.739 73.6532 96.0424 89.4154 93.3673 105.597C89.3897 103.968 87.2568 100.481 86.1126 97.1523H89.8477C91.3186 97.1523 92.6454 96.2706 93.2147 94.9153C93.7839 93.5613 93.4857 91.9963 92.4571 90.9448L84.9527 83.2806C85.5433 77.3455 87.2411 70.8483 90.0117 63.9174Z" fill="#030303"/>
</svg>
