<svg width="111" height="111" viewBox="0 0 111 111" fill="none" xmlns="http://www.w3.org/2000/svg">
<g clip-path="url(#clip0)">
<path d="M-9.22015 55.5255C-9.22015 62.1283 -8.17174 68.9627 -6.12561 75.4814L-7.68633 80.1628L-7.68966 80.1728C-9.0849 84.3631 -9.51045 88.7255 -9.03196 92.9639L-22.2068 132.487L17.3168 119.312C21.5614 119.791 25.9275 119.363 30.1168 117.966C30.121 117.965 30.1253 117.963 30.1295 117.962C30.134 117.96 30.1386 117.959 30.1431 117.957L34.798 116.406C41.3176 118.452 48.1525 119.5 54.7545 119.5C89.607 119.5 118.729 90.4264 118.729 55.5255C118.729 20.6733 89.6563 -8.44922 54.7545 -8.44922C19.9106 -8.44922 -9.22015 20.6187 -9.22015 55.5255Z" stroke="#2B2D42" stroke-width="57"/>
</g>
<defs>
<clipPath id="clip0">
<rect width="110.28" height="110.28" rx="15" fill="white"/>
</clipPath>
</defs>
</svg>
