<svg width="110" height="111" viewBox="0 0 110 111" fill="none" xmlns="http://www.w3.org/2000/svg">
<path fill-rule="evenodd" clip-rule="evenodd" d="M10.1227 0C4.53209 0 0 4.57329 0 10.2147V100.785C0 106.427 4.53209 111 10.1227 111H99.8773C105.468 111 110 106.427 110 100.785V10.2147C110 4.57329 105.468 0 99.8773 0H10.1227ZM95.5304 33.9391C94.6204 33.9391 93.8828 34.684 93.8828 35.6016V39.0112H76.6258L66.4501 25.7939V23.1403C66.4501 22.222 65.7125 21.4777 64.8025 21.4777C63.8925 21.4777 63.1549 22.222 63.1549 23.1403V25.8069L60.5278 29.3242L56.6476 23.7761V16.644C56.6476 15.7257 55.9101 14.9814 55.0001 14.9814C54.09 14.9814 53.3525 15.7257 53.3525 16.644V23.7761L49.4723 29.3242L46.8452 25.8069V23.1403C46.8452 22.222 46.1077 21.4777 45.1976 21.4777C44.2876 21.4777 43.5501 22.222 43.5501 23.1403V25.7854L33.18 39.0112H16.1173V35.6016C16.1173 34.6833 15.3797 33.9391 14.4697 33.9391C13.5597 33.9391 12.8221 34.6833 12.8221 35.6016V95.1613C12.8221 96.0796 13.5597 96.8239 14.4697 96.8239H95.5304C96.4404 96.8239 97.178 96.0796 97.178 95.1613V35.6016C97.178 34.684 96.4404 33.9391 95.5304 33.9391ZM86.918 86.3589H68.0976V59.0449H86.918V86.3589ZM68.0976 55.7198V52.4798H93.8828V55.7198H68.0976ZM93.8828 49.1553H91.7114L93.8828 45.9926V49.1553ZM87.7025 49.1553H68.0976V42.3363H92.3846L87.7025 49.1553ZM62.5236 32.1772L64.8224 29.0989L72.4534 39.0112H67.3035L62.5236 32.1772ZM16.1173 55.7198V52.4798H41.9025V55.7198H16.1173ZM18.2887 49.1553H16.1173V45.9926L18.2887 49.1553ZM45.1661 29.0833L47.4766 32.1772L42.6967 39.0112H37.382L45.1661 29.0833ZM41.9025 42.3363V49.1547H22.2976L17.6156 42.3363H41.9025ZM16.1173 59.0449H19.787V93.4987H16.1173V59.0449ZM23.0822 89.684H41.9025V93.4987H23.0822V89.684ZM45.1976 88.0214C45.1976 87.1038 44.4601 86.3589 43.5501 86.3589H23.0822V59.0449H41.9025V73.061C41.9025 73.9793 42.64 74.7236 43.5501 74.7236C44.4601 74.7236 45.1976 73.9793 45.1976 73.061V41.2011L55.0001 27.1869L64.8025 41.2011V93.4987H60.8869V86.8005C60.8869 86.4335 60.7666 86.0777 60.5458 85.7874L56.3677 80.2996C56.0555 79.8898 55.5729 79.6502 55.0612 79.6502C54.5489 79.6502 54.0662 79.8898 53.7547 80.2996L49.5766 85.7874C49.3552 86.0777 49.2355 86.4342 49.2355 86.8005V93.4987H45.1983L45.1976 88.0214ZM52.5306 93.4987V87.3655L55.0612 84.0417L57.5918 87.3655V93.4987H52.5306ZM68.0976 89.684H86.918V93.4987H68.0976V89.684ZM93.8828 93.4987H90.2131V59.0449H93.8828V93.4987ZM55 52.8338C58.4786 52.8338 61.3085 49.9776 61.3085 46.4674C61.3085 42.9572 58.4786 40.1016 55 40.1016C51.5215 40.1016 48.6916 42.9572 48.6916 46.4674C48.6916 49.9776 51.5215 52.8338 55 52.8338ZM55 43.4267C56.6618 43.4267 58.0133 44.7905 58.0133 46.4674C58.0133 48.1442 56.6618 49.5087 55 49.5087C53.3383 49.5087 51.9868 48.1442 51.9868 46.4674C51.9868 44.7905 53.3383 43.4267 55 43.4267ZM27.0904 64.7671C27.0904 63.8488 27.828 63.1046 28.738 63.1046C29.6474 63.1046 30.3856 63.8488 30.3856 64.7671V68.3754C30.3856 69.2937 29.6474 70.0379 28.738 70.0379C27.828 70.0379 27.0904 69.2937 27.0904 68.3754V64.7671ZM36.1025 63.1046C35.1925 63.1046 34.4549 63.8488 34.4549 64.7671V68.3754C34.4549 69.2937 35.1925 70.0379 36.1025 70.0379C37.0119 70.0379 37.7501 69.2937 37.7501 68.3754V64.7671C37.7501 63.8488 37.0119 63.1046 36.1025 63.1046ZM27.0904 76.542C27.0904 75.6237 27.828 74.8794 28.738 74.8794C29.6474 74.8794 30.3856 75.6237 30.3856 76.542V80.1502C30.3856 81.0685 29.6474 81.8128 28.738 81.8128C27.828 81.8128 27.0904 81.0685 27.0904 80.1502V76.542ZM36.1025 74.8794C35.1925 74.8794 34.4549 75.6237 34.4549 76.542V80.1502C34.4549 81.0685 35.1925 81.8128 36.1025 81.8128C37.0119 81.8128 37.7501 81.0685 37.7501 80.1502V76.542C37.7501 75.6237 37.0119 74.8794 36.1025 74.8794ZM75.6379 68.3754C75.6379 69.2937 74.9003 70.0379 73.9903 70.0379C73.0803 70.0379 72.3427 69.2937 72.3427 68.3754V64.7671C72.3427 63.8488 73.0803 63.1046 73.9903 63.1046C74.9003 63.1046 75.6379 63.8488 75.6379 64.7671V68.3754ZM81.3548 70.0379C82.2648 70.0379 83.0024 69.2937 83.0024 68.3754V64.7671C83.0024 63.8488 82.2648 63.1046 81.3548 63.1046C80.4448 63.1046 79.7072 63.8488 79.7072 64.7671V68.3754C79.7072 69.2937 80.4448 70.0379 81.3548 70.0379ZM75.6379 80.1502C75.6379 81.0685 74.9003 81.8128 73.9903 81.8128C73.0803 81.8128 72.3427 81.0685 72.3427 80.1502V76.542C72.3427 75.6237 73.0803 74.8794 73.9903 74.8794C74.9003 74.8794 75.6379 75.6237 75.6379 76.542V80.1502ZM81.3548 81.8128C82.2648 81.8128 83.0024 81.0685 83.0024 80.1502V76.542C83.0024 75.6237 82.2648 74.8794 81.3548 74.8794C80.4448 74.8794 79.7072 75.6237 79.7072 76.542V80.1502C79.7072 81.0685 80.4448 81.8128 81.3548 81.8128ZM49.7806 58.7124C49.7806 57.7941 50.5188 57.0499 51.4282 57.0499C52.3382 57.0499 53.0758 57.7941 53.0758 58.7124V62.5051C53.0758 63.4228 52.3382 64.1677 51.4282 64.1677C50.5188 64.1677 49.7806 63.4228 49.7806 62.5051V58.7124ZM58.2804 57.0499C57.3704 57.0499 56.6328 57.7941 56.6328 58.7124V62.5051C56.6328 63.4228 57.3704 64.1677 58.2804 64.1677C59.1904 64.1677 59.928 63.4228 59.928 62.5051V58.7124C59.928 57.7941 59.1904 57.0499 58.2804 57.0499ZM49.7806 69.1066C49.7806 68.1883 50.5188 67.4441 51.4282 67.4441C52.3382 67.4441 53.0758 68.1883 53.0758 69.1066V72.8993C53.0758 73.8176 52.3382 74.5619 51.4282 74.5619C50.5188 74.5619 49.7806 73.8176 49.7806 72.8993V69.1066ZM58.2804 67.4441C57.3704 67.4441 56.6328 68.1883 56.6328 69.1066V72.8993C56.6328 73.8176 57.3704 74.5619 58.2804 74.5619C59.1904 74.5619 59.928 73.8176 59.928 72.8993V69.1066C59.928 68.1883 59.1904 67.4441 58.2804 67.4441ZM43.5314 78.9793C44.1975 78.9748 44.8153 79.3839 45.0715 80.0048C45.3714 80.7419 45.103 81.618 44.433 82.0453C43.8538 82.4142 43.0924 82.3798 42.5473 81.9602C41.9932 81.5342 41.7673 80.7718 41.9906 80.1074C42.2127 79.4489 42.8402 78.9845 43.5314 78.9793Z" fill="#2B2D42"/>
</svg>
