<svg width="49" height="49" viewBox="0 0 49 49" fill="none" xmlns="http://www.w3.org/2000/svg">
<path d="M39.749 41.6856C35.5296 45.4767 30.0801 47.5646 24.4043 47.5646C18.2691 47.5646 12.5011 45.1754 8.16278 40.8372C3.82452 36.4989 1.43531 30.7309 1.43531 24.5956C1.43531 18.4604 3.82452 12.6924 8.16278 8.35409C12.5011 4.01583 18.2691 1.62662 24.4043 1.62662C27.3598 1.62662 30.2384 2.18093 32.9602 3.27435C33.3278 3.4219 33.7459 3.24382 33.8937 2.87591C34.0414 2.50818 33.8631 2.09022 33.4953 1.94248C30.6024 0.780552 27.5438 0.191406 24.4043 0.191406C17.8857 0.191406 11.7573 2.72989 7.14782 7.33923C2.53848 11.9486 0 18.077 0 24.5956C0 31.1142 2.53848 37.2427 7.14782 41.852C11.7573 46.4614 17.8857 48.9998 24.4043 48.9998C30.4348 48.9998 36.225 46.7813 40.7083 42.7531C41.0031 42.4882 41.0275 42.0345 40.7625 41.7397C40.4975 41.445 40.0438 41.4206 39.749 41.6856V41.6856Z" fill="#2B2D42"/>
<path d="M46.9236 15.1775C46.7706 14.8118 46.35 14.6396 45.9845 14.7927C45.6189 14.9458 45.4466 15.3663 45.5997 15.7318C46.7766 18.5426 47.3733 21.5249 47.3733 24.5958C47.3733 30.0712 45.4137 35.3743 41.8557 39.5286C41.5979 39.8296 41.6329 40.2827 41.9339 40.5405C42.0692 40.6563 42.2351 40.7131 42.4003 40.7131C42.6027 40.7131 42.8038 40.6279 42.9458 40.4623C46.7264 36.0481 48.8086 30.4133 48.8086 24.5959C48.8085 21.3335 48.1743 18.1647 46.9236 15.1775V15.1775Z" fill="#2B2D42"/>
<path d="M8.62488 15.7475C8.27199 15.5674 7.83967 15.7073 7.6593 16.0603C6.3016 18.7192 5.61304 21.5908 5.61304 24.5956C5.61304 34.9572 14.0428 43.3868 24.4043 43.3868C34.7659 43.3868 43.1957 34.9571 43.1957 24.5956C43.1957 22.837 42.9524 21.0949 42.4725 19.4178C42.3635 19.0368 41.9661 18.8166 41.5852 18.9252C41.2042 19.0343 40.9837 19.4316 41.0926 19.8126C41.5358 21.3613 41.7604 22.9706 41.7604 24.5956C41.7604 34.1658 33.9746 41.9515 24.4044 41.9515C14.8343 41.9515 7.04834 34.1657 7.04834 24.5955C7.04834 21.8198 7.68399 19.1678 8.93759 16.713C9.11786 16.36 8.97778 15.9278 8.62488 15.7475V15.7475Z" fill="#2B2D42"/>
<path d="M29.8665 7.34879C29.9709 6.96642 29.7455 6.57181 29.3631 6.46751C27.7518 6.02764 26.0834 5.80469 24.4043 5.80469C21.3896 5.80469 18.5098 6.49717 15.845 7.86292C13.3037 9.16541 11.0548 11.0661 9.34129 13.3597C9.10408 13.6771 9.16906 14.1269 9.48664 14.3641C9.61563 14.4603 9.76624 14.5068 9.91561 14.5068C10.1343 14.5068 10.3501 14.4072 10.4911 14.2186C12.0744 12.0996 14.1521 10.3434 16.4997 9.14024C18.96 7.87928 21.6195 7.23999 24.4043 7.23999C25.9557 7.23999 27.497 7.44591 28.9853 7.8522C29.3673 7.9565 29.7621 7.73115 29.8665 7.34879V7.34879Z" fill="#2B2D42"/>
<path d="M25.9408 12.7416C25.9677 12.3462 25.6688 12.0039 25.2734 11.977C24.9777 11.957 24.6853 11.9468 24.4041 11.9468C17.4295 11.9468 11.7554 17.621 11.7554 24.5956C11.7554 31.5701 17.4296 37.2443 24.4041 37.2443C31.3787 37.2443 37.0529 31.5701 37.0529 24.5956C37.0529 24.2621 37.0392 23.921 37.0124 23.5816C36.981 23.1866 36.637 22.8914 36.2403 22.9228C35.8452 22.9542 35.5503 23.2999 35.5815 23.6949C35.6055 23.9967 35.6176 24.2998 35.6176 24.5956C35.6176 30.7787 30.5873 35.809 24.4041 35.809C18.221 35.809 13.1907 30.7787 13.1907 24.5956C13.1907 18.4124 18.221 13.3821 24.4041 13.3821C24.653 13.3821 24.9126 13.3912 25.1762 13.4091C25.5698 13.4352 25.914 13.1371 25.9408 12.7416V12.7416Z" fill="#2B2D42"/>
<path d="M24.3993 19.6498C24.4123 19.6502 24.4252 19.6506 24.4383 19.6507C24.8318 19.6502 25.1593 19.3345 25.1621 18.9381C25.165 18.5418 24.847 18.2182 24.4507 18.2153C24.4352 18.2148 24.4198 18.2144 24.4042 18.2144C20.8855 18.2144 18.0227 21.0771 18.0227 24.5959C18.0227 28.1147 20.8855 30.9775 24.4042 30.9775C27.8952 30.9775 30.7574 28.1373 30.7846 24.6462C30.7876 24.2498 30.4688 23.926 30.0726 23.9229H30.0668C29.6731 23.9229 29.3523 24.2406 29.3493 24.6351C29.3283 27.3409 27.11 29.5422 24.4042 29.5422C21.6768 29.5422 19.458 27.3233 19.458 24.5959C19.458 21.8685 21.6769 19.6497 24.3993 19.6498V19.6498Z" fill="#2B2D42"/>
<path d="M27.4396 13.5785L28.7579 17.5648L25.249 21.1981C24.4277 22.0484 23.9724 23.2139 24 24.3957C24.0091 24.7848 24.3266 25.0958 24.7158 25.0967H24.7256C25.9041 25.0967 27.0559 24.6174 27.8865 23.7809L28.7832 22.8778C29.0624 22.5965 29.0608 22.1421 28.7795 21.8629C28.4984 21.5838 28.0439 21.5851 27.7647 21.8665L26.868 22.7696C26.4968 23.1435 26.0309 23.4121 25.5276 23.5517C25.6566 23.0456 25.9153 22.5742 26.2813 22.1953L42.7791 5.11289C42.8309 5.05931 42.8907 5.04744 42.9318 5.04687C42.9703 5.04591 43.0331 5.05653 43.0864 5.10868L43.5985 5.61008C43.6518 5.66223 43.6634 5.72213 43.6636 5.76328C43.6639 5.80442 43.6533 5.86461 43.6009 5.91733L29.9586 19.657C29.6794 19.9383 29.681 20.3927 29.9622 20.6719C30.2434 20.951 30.6978 20.9496 30.9771 20.6683L31.4455 20.1965C31.4455 20.1965 35.7783 21.5032 35.9393 21.5032C36.3488 21.5032 36.7515 21.3502 37.059 21.0647L48.2639 10.6559C48.6769 10.2721 48.863 9.712 48.7616 9.15749C48.6602 8.60298 48.2881 8.14483 47.7661 7.93212L44.7931 6.72005C44.9932 6.43931 45.1013 6.10488 45.0989 5.75323C45.0957 5.30991 44.9195 4.89501 44.6027 4.5848L44.0906 4.0834C43.7794 3.77863 43.3701 3.61166 42.9355 3.61166C42.9277 3.61166 42.9199 3.61166 42.912 3.61175C42.5604 3.61663 42.2282 3.73175 41.9518 3.93766L40.6776 0.990694C40.4539 0.473314 39.9881 0.110852 39.4316 0.0211929C38.8752 -0.0683702 38.319 0.129319 37.9441 0.550247L27.7725 11.9707C27.3836 12.4072 27.256 13.0233 27.4396 13.5785V13.5785ZM42.3208 14.2176L38.8052 12.7843L41.0363 10.5374L44.6823 12.0239L42.3208 14.2176ZM38.7882 17.4992L35.4764 16.1369L37.7097 13.8877L41.1612 15.2949L38.7882 17.4992ZM36.0822 20.0131C36.0284 20.0632 35.9511 20.0809 35.8806 20.0592L32.5877 19.0463L34.3823 17.2388L37.6303 18.5749L36.0822 20.0131ZM47.3497 9.41556C47.3573 9.45728 47.3593 9.53717 47.287 9.60435L45.842 10.9467L42.1318 9.43412L43.7214 7.83308L47.2243 9.26121C47.3156 9.29844 47.342 9.37393 47.3497 9.41556V9.41556ZM33.455 7.7484L34.9342 11.1697L32.7323 13.4497L31.3009 10.1671L33.455 7.7484ZM36.6514 4.15947L38.214 7.77366L36.0143 10.0513L34.5076 6.56647L36.6514 4.15947ZM39.0158 1.50482C39.0816 1.43105 39.1617 1.43133 39.2033 1.43822C39.2451 1.44492 39.3211 1.4698 39.3603 1.56032L40.8615 5.03242L39.2942 6.65527L37.7042 2.97754L39.0158 1.50482ZM28.8442 12.9253L30.2496 11.3474L31.6534 14.5668L29.884 16.3988L28.8023 13.1278C28.7792 13.0579 28.7953 12.9803 28.8442 12.9253Z" fill="#2B2D42"/>
</svg>
