<svg width="57" height="43" viewBox="0 0 57 43" fill="none" xmlns="http://www.w3.org/2000/svg">
<path d="M20.4118 35.8931C19.9515 35.8931 19.5784 36.2661 19.5784 36.7265V41.1154C19.5784 41.5758 19.9515 41.9488 20.4118 41.9488C20.872 41.9488 21.2452 41.5758 21.2452 41.1154V36.7265C21.2452 36.2661 20.872 35.8931 20.4118 35.8931Z" fill="#2B2D42"/>
<path d="M36.5438 35.8931C36.0836 35.8931 35.7104 36.2661 35.7104 36.7265V41.1154C35.7104 41.5758 36.0836 41.9488 36.5438 41.9488C37.0041 41.9488 37.3772 41.5758 37.3772 41.1154V36.7265C37.3772 36.2661 37.0041 35.8931 36.5438 35.8931Z" fill="#2B2D42"/>
<path d="M52.7372 32.9834L49.9467 31.8638V31.1511C50.4945 30.8467 50.9863 30.4505 51.4003 29.9829C53.1654 30.1913 54.8543 29.4867 55.9476 28.0691C57.0782 26.6032 57.3134 24.7141 56.577 23.0157L55.3239 20.1263C55.2296 19.9092 55.1648 19.6802 55.1311 19.446C54.8611 17.5692 53.9231 15.8517 52.49 14.6101C51.0569 13.3683 49.2234 12.6846 47.3273 12.6846C45.4312 12.6846 43.5977 13.3683 42.1646 14.6101C40.7316 15.8517 39.7935 17.5691 39.5235 19.446C39.4897 19.6803 39.425 19.9093 39.3307 20.1263L38.0778 23.0157C37.3413 24.714 37.5765 26.6031 38.7071 28.0691C39.6743 29.3231 41.1073 30.0219 42.6469 30.0218C42.8454 30.0218 43.046 30.01 43.2476 29.9864C43.6232 30.4123 44.0636 30.7791 44.5542 31.0711V31.8637L41.7638 32.9834C41.5819 33.0564 41.4043 33.1389 41.2312 33.2303C40.6913 32.2372 39.9204 31.3688 38.9613 30.7091L35.3267 28.2095C35.3477 27.7504 35.1641 27.2881 34.7902 26.9708L33.3133 25.7176C33.1733 25.5987 33.016 25.5089 32.8497 25.4479V23.7607C34.4108 22.6284 35.5178 20.9081 35.8423 18.9268H35.9312C37.5202 18.9268 38.8129 17.6341 38.8129 16.0452C38.8129 15.3668 38.5767 14.7427 38.183 14.2499L38.7787 10.0151C39.2081 6.9622 37.0767 4.10967 34.0273 3.65608L33.9087 3.63852C32.9336 2.04708 31.4234 0.898886 29.6114 0.385073L29.3933 0.323179C26.9909 -0.35798 24.4211 0.0486047 22.343 1.43892C21.9604 1.69483 21.8577 2.21242 22.1136 2.59489C22.3696 2.97737 22.887 3.08015 23.2697 2.82413C24.9411 1.70605 27.0072 1.37903 28.9386 1.92674L29.1567 1.98863C30.6729 2.41855 31.9176 3.42051 32.6614 4.80994C33.1731 5.76589 33.399 6.81719 33.3338 7.86882L32.7688 7.38323C32.2525 6.93942 31.4932 6.92764 30.9636 7.35545L30.2225 7.95405H25.9924C23.2474 7.95405 21.0141 10.1873 21.0141 12.9323V13.1637C20.7931 13.1645 20.5782 13.191 20.3715 13.2391C19.4293 10.5867 19.695 7.59825 21.1111 5.15374C21.3418 4.75538 21.206 4.24557 20.8078 4.01477C20.4095 3.7842 19.8997 3.91988 19.6689 4.31813C17.9564 7.27456 17.6787 10.9094 18.9099 14.0905C18.4344 14.6045 18.1431 15.2913 18.1431 16.0452C18.1431 17.6341 19.4359 18.9268 21.0249 18.9268H21.1138C21.4383 20.9081 22.5452 22.6284 24.1063 23.7607V25.4479C23.9401 25.5088 23.7828 25.5987 23.6429 25.7175L22.1659 26.9708C21.792 27.2881 21.6084 27.7505 21.6294 28.2095L17.9948 30.7091C17.2562 31.217 16.629 31.8486 16.133 32.5657C15.8115 32.3881 15.4765 32.2363 15.1296 32.1134L12.6619 31.2393V30.5825C13.9188 29.8059 14.8225 28.5114 15.0742 26.9988H15.4471C16.9093 26.9988 18.0988 25.8093 18.0988 24.3472C18.0988 23.6907 17.8586 23.0898 17.462 22.6262L17.6108 20.8648C17.8176 18.3284 16.7108 15.9225 14.6501 14.4294C12.5894 12.9361 9.95846 12.6335 7.61252 13.6198L5.9514 14.3182C3.37933 14.886 1.66021 17.3506 2.02746 19.9686L2.39904 22.6176C1.99812 23.0823 1.75488 23.6867 1.75488 24.3472C1.75488 25.8093 2.94441 26.9988 4.40662 26.9988H4.77954C5.01489 28.4133 5.82061 29.6366 6.95202 30.4245V31.2393L4.4843 32.1133C4.13872 32.2358 3.79825 32.3891 3.47245 32.5693C3.06964 32.792 2.92363 33.299 3.14631 33.7019C3.29832 33.9769 3.5829 34.1321 3.87637 34.1321C4.01271 34.1321 4.15105 34.0985 4.27884 34.0279C4.52474 33.8919 4.7811 33.7763 5.04056 33.6844L7.17293 32.9291C7.60474 33.9583 8.62259 34.683 9.80678 34.683C10.991 34.683 12.0088 33.9583 12.4406 32.9291L14.573 33.6845C14.8412 33.7794 15.1002 33.8975 15.3483 34.0362C15.0173 34.8754 14.8398 35.7797 14.8398 36.7076V41.6517C14.8398 42.1121 15.2129 42.4851 15.6732 42.4851C16.1334 42.4851 16.5066 42.1121 16.5066 41.6517V36.7076C16.5066 34.859 17.416 33.13 18.9391 32.0825L22.41 29.6955L23.8327 31.5976C24.1385 32.0065 24.6179 32.2369 25.1125 32.2369C25.2665 32.2369 25.4221 32.2145 25.5742 32.1682L27.6445 31.5381V42.0007C27.6445 42.461 28.0176 42.8341 28.4779 42.8341C28.9381 42.8341 29.3113 42.461 29.3113 42.0007V31.5381L31.3817 32.1683C31.5339 32.2145 31.6892 32.2369 31.8432 32.2369C32.3377 32.2369 32.8173 32.0064 33.1231 31.5976L34.5456 29.6955L38.0165 32.0825C39.5398 33.13 40.449 34.859 40.449 36.7076V41.6517C40.449 42.1121 40.8222 42.4851 41.2824 42.4851C41.7427 42.4851 42.1158 42.1121 42.1158 41.6517V36.7076C42.1158 36.0512 42.0268 35.4066 41.8579 34.7884C42.0268 34.6898 42.2025 34.6034 42.3842 34.5305L44.804 33.5595C45.2327 34.4822 46.1678 35.124 47.2504 35.124C48.333 35.124 49.2681 34.4824 49.6968 33.5596L52.1167 34.5305C53.647 35.1443 54.6356 36.6063 54.6356 38.255V39.6656C54.6356 40.126 55.0087 40.499 55.469 40.499C55.9292 40.499 56.3024 40.126 56.3024 39.6656V38.255C56.3023 35.9215 54.9028 33.8523 52.7372 32.9834V32.9834ZM19.8096 16.0451C19.8096 15.3788 20.3489 14.8365 21.0138 14.8306V17.2593C20.349 17.2535 19.8096 16.7113 19.8096 16.0451ZM15.4468 25.3319H15.1459V23.362H15.4468C15.99 23.362 16.4318 23.8039 16.4318 24.347C16.4318 24.89 15.99 25.3319 15.4468 25.3319V25.3319ZM3.42144 24.3471C3.42144 23.8039 3.86325 23.3621 4.4064 23.3621H4.70731V25.332H4.4064C3.86336 25.3319 3.42144 24.8901 3.42144 24.3471V24.3471ZM5.71949 19.1264C5.16668 19.8898 4.83243 20.7688 4.73676 21.6952H4.4064C4.2535 21.6952 4.10394 21.709 3.95804 21.7339L3.67791 19.7368C3.42878 17.9611 4.61019 16.2905 6.36743 15.9335C6.42121 15.9226 6.47388 15.9064 6.52455 15.885L8.25845 15.156C10.0632 14.3972 12.0869 14.6302 13.6721 15.7787C15.2572 16.9275 16.1086 18.778 15.9497 20.7266L15.865 21.7283C15.7288 21.7067 15.5892 21.6951 15.4468 21.6951H15.1386C15.0668 20.9885 14.4684 20.4351 13.7432 20.4351H11.6852C10.2186 20.4351 8.76726 19.947 7.59874 19.0608L7.36294 18.882C7.11537 18.6942 6.7969 18.6127 6.48988 18.6585C6.18253 18.7042 5.90173 18.8748 5.71949 19.1264V19.1264ZM7.06948 20.104C7.06926 20.1043 7.06914 20.1046 7.06903 20.1048C7.06914 20.1046 7.06937 20.1043 7.06948 20.104ZM6.37421 22.2499C6.37421 21.6472 6.51944 21.0647 6.79757 20.5403C8.21689 21.5491 9.94246 22.1022 11.6854 22.1022H13.4791V26.1395C13.4791 28.0985 11.8855 29.6921 9.92668 29.6921C7.96787 29.6921 6.37421 28.0985 6.37421 26.1395V22.2499ZM9.80667 33.0163C9.15151 33.0163 8.61859 32.4832 8.61859 31.8282V31.1928C9.03673 31.3011 9.47509 31.3589 9.92668 31.3589C10.2927 31.3589 10.6498 31.3207 10.9949 31.2486V31.8282C10.9949 32.4832 10.4618 33.0163 9.80667 33.0163ZM35.9416 17.2593V14.8306C36.6065 14.8364 37.1458 15.3788 37.1458 16.0451C37.1458 16.7113 36.6065 17.2535 35.9416 17.2593ZM37.1278 9.78262L36.6398 13.2518C36.4162 13.195 36.1823 13.1644 35.9415 13.1635V13.0961C35.9415 11.7524 35.5259 10.46 34.7733 9.38004C35.1014 8.11617 35.0899 6.81497 34.7502 5.57821C36.36 6.26526 37.3823 7.97394 37.1278 9.78262V9.78262ZM22.6807 17.7166V12.9321C22.6807 11.106 24.1662 9.62061 25.9921 9.62061H30.5169C30.7075 9.62061 30.8923 9.55527 31.0405 9.4356L31.8442 8.78633L32.5908 9.42804C33.661 10.3479 34.2747 11.685 34.2747 13.0961V17.7165C34.2747 20.9131 31.6742 23.5136 28.4776 23.5136C25.2811 23.5136 22.6807 20.9131 22.6807 17.7166V17.7166ZM28.4778 25.1805C29.4317 25.1805 30.3433 24.9987 31.1827 24.6711V25.739L28.4778 27.0653L25.7728 25.739V24.6711C26.6121 24.9986 27.5238 25.1805 28.4778 25.1805ZM25.1371 30.5587L23.3418 28.1585L24.6527 27.0461L27.6443 28.5128V29.7957L25.1371 30.5587ZM31.8183 30.5587L29.3111 29.7958V28.5129L32.3027 27.0462L33.6136 28.1586L31.8183 30.5587ZM40.0268 27.0512C39.2723 26.0729 39.1153 24.8123 39.6069 23.6789L40.8598 20.7896C41.013 20.4367 41.1184 20.0646 41.1732 19.6834C41.6107 16.6438 44.2563 14.3515 47.3273 14.3515C50.3983 14.3515 53.0439 16.6438 53.4813 19.6834C53.5361 20.0645 53.6415 20.4366 53.7946 20.7896L55.0476 23.6789C55.5391 24.8122 55.3822 26.0729 54.6277 27.0512C54.069 27.7754 53.2773 28.2214 52.4083 28.3284C52.5878 27.8621 52.7048 27.3651 52.7478 26.847C52.7858 26.3883 52.4447 25.9856 51.9861 25.9476C51.5278 25.9104 51.1248 26.2508 51.0867 26.7094C50.9261 28.6481 49.2748 30.1667 47.3273 30.1667C45.2464 30.1667 43.5536 28.4739 43.5536 26.393V22.3951C43.5536 21.5086 43.8145 20.6367 44.2951 19.8967C45.3735 20.7198 46.7028 21.1906 48.0607 21.2265L51.101 21.3068V23.2265C51.101 23.6868 51.4741 24.0598 51.9344 24.0598C52.3947 24.0598 52.7678 23.6868 52.7678 23.2265V21.0811C52.7678 20.2972 52.154 19.6671 51.3705 19.6465L48.1046 19.5605C47.0471 19.5325 46.0129 19.1495 45.1925 18.4822L44.9771 18.307C44.7231 18.1004 44.4041 18.0058 44.0784 18.0408C43.7529 18.0755 43.461 18.2355 43.2567 18.491C42.3732 19.5949 41.8865 20.9814 41.8865 22.3954V26.3933C41.8865 27.0742 42.0133 27.7257 42.2427 28.3268C41.3753 28.219 40.5847 27.7746 40.0268 27.0512V27.0512ZM47.2503 33.4571C46.6826 33.4571 46.2207 32.9953 46.2207 32.4274V31.7202C46.5781 31.7943 46.9482 31.8336 47.3272 31.8336C47.6514 31.8336 47.9696 31.8032 48.2798 31.7472V32.4275C48.2799 32.9953 47.818 33.4571 47.2503 33.4571V33.4571Z" fill="#2B2D42"/>
<path d="M1.78624 35.1394C1.37199 34.9383 0.873617 35.1119 0.672936 35.5262C0.22646 36.4486 0 37.4351 0 38.4584V41.115C0 41.5754 0.373137 41.9484 0.833392 41.9484C1.29365 41.9484 1.66678 41.5754 1.66678 41.115V38.4584C1.66678 37.6888 1.83713 36.9467 2.17326 36.2525C2.37383 35.8383 2.2006 35.3398 1.78624 35.1394V35.1394Z" fill="#2B2D42"/>
</svg>
