<svg width="111" height="111" viewBox="0 0 111 111" fill="none" xmlns="http://www.w3.org/2000/svg">
<path fill-rule="evenodd" clip-rule="evenodd" d="M15 0C6.71573 0 0 6.71574 0 15V95.2755C0 103.56 6.71574 110.275 15 110.275H95.2755C103.56 110.275 110.275 103.56 110.275 95.2755V15C110.275 6.71573 103.56 0 95.2755 0H15ZM21.5758 41.8068L87.9557 20.1164C89.7294 19.5365 91.4245 21.221 90.8427 23.0034L79.9975 56.1934L69.1523 89.3833C68.5402 91.2564 65.9908 91.5305 64.9977 89.823L50.4109 64.7373C49.9508 63.9461 50.0063 62.9568 50.5519 62.2219L55.7888 55.1702L48.7371 60.4071C48.0023 60.9528 47.0132 61.0083 46.2218 60.5481L21.1362 45.9613C19.43 44.9693 19.7011 42.4194 21.5758 41.8068ZM55.1266 63.7401L66.3871 83.1054L85.09 25.8689L27.8534 44.5716L47.2186 55.8323L65.5024 42.2539C66.4136 41.5772 67.6832 41.6705 68.4857 42.473C69.2882 43.2756 69.3814 44.545 68.7048 45.4563L55.1266 63.7401ZM28.8344 85.3613L44.0328 70.163C44.9268 69.2692 44.9268 67.8199 44.0328 66.926C43.1393 66.032 41.6899 66.0323 40.7958 66.926L25.5974 82.1243C24.7034 83.0182 24.7034 84.4675 25.5974 85.3613C26.4912 86.2553 27.9405 86.255 28.8344 85.3613ZM23.9545 67.5011C23.0605 68.395 23.0605 69.8442 23.9545 70.7382C24.8483 71.632 26.2978 71.6319 27.1915 70.7382L33.1886 64.7409C34.0825 63.8471 34.0825 62.3979 33.1886 61.5039C32.2947 60.6099 30.8454 60.6099 29.9515 61.5039L23.9545 67.5011ZM49.4549 81.0072C50.3489 80.1133 50.3489 78.664 49.4549 77.7701C48.5611 76.8761 47.1118 76.8761 46.2181 77.7701L40.2208 83.7672C38.7748 85.2131 39.8183 87.6748 41.8393 87.6748C42.425 87.6748 43.0108 87.4513 43.4577 87.0042L49.4549 81.0072Z" fill="#2B2D42"/>
</svg>
