<svg width="112" height="111" viewBox="0 0 112 111" fill="none" xmlns="http://www.w3.org/2000/svg">
<path fill-rule="evenodd" clip-rule="evenodd" d="M0.826172 15C0.826172 6.71574 7.5419 0 15.8262 0H96.1016C104.386 0 111.102 6.71573 111.102 15V95.2755C111.102 103.56 104.386 110.275 96.1016 110.275H15.8262C7.54191 110.275 0.826172 103.56 0.826172 95.2755V15ZM90.25 19H22.75C20.6799 19.0022 19.0022 20.6799 19 22.75V90.25C19.0022 92.3201 20.6799 93.9978 22.75 94H90.25C92.3201 93.9978 93.9978 92.3201 94 90.25V22.75C93.9978 20.6799 92.3201 19.0022 90.25 19ZM91.5 90.25C91.4992 90.9401 90.9401 91.4994 90.25 91.5H22.75C22.0599 91.4992 21.5006 90.9401 21.5 90.25V31.5H91.5001V90.25H91.5ZM91.5 29H21.5V22.75C21.5008 22.0599 22.0599 21.5006 22.75 21.5H90.25C90.9401 21.5008 91.4994 22.0599 91.5 22.75V29ZM26.5 24H29C29.6902 24 30.25 24.5597 30.25 25.2501C30.25 25.9405 29.6904 26.5 29 26.5H26.5C25.8096 26.5 25.25 25.9403 25.25 25.25C25.25 24.5596 25.8096 24 26.5 24ZM86.5 24H84C83.3096 24 82.75 24.5596 82.75 25.25C82.75 25.9403 83.3096 26.4999 84 26.4999H86.5C87.1904 26.4999 87.75 25.9403 87.75 25.25C87.75 24.5596 87.1904 24 86.5 24ZM39 24H74.0001C74.6904 24 75.2499 24.5596 75.2499 25.25C75.2499 25.9403 74.6903 26.4999 73.9999 26.4999H39C38.3096 26.4999 37.75 25.9403 37.75 25.25C37.75 24.5596 38.3096 24 39 24ZM83.9323 79.8542C85.7632 77.8611 85.6759 74.7729 83.7353 72.8864C81.7946 70.9998 78.7053 70.9998 76.7646 72.8864C74.824 74.7729 74.7367 77.861 76.5676 79.8542C74.103 81.1302 72.6106 83.728 72.7498 86.4999C72.7496 86.8314 72.8813 87.1494 73.1159 87.3839C73.3502 87.6183 73.6683 87.75 73.9999 87.75H86.5C86.8315 87.7501 87.1495 87.6184 87.384 87.3839C87.6184 87.1495 87.7501 86.8315 87.7501 86.4999C87.8893 83.728 86.3969 81.1302 83.9323 79.8542ZM80.2499 73.9999C81.6307 73.9999 82.75 75.1192 82.75 76.5C82.75 77.8808 81.6307 79 80.2499 79C78.8699 78.9984 77.7515 77.88 77.7499 76.5C77.75 75.1192 78.8693 73.9999 80.2499 73.9999ZM75.3604 85.2499C75.7448 82.9052 77.8857 81.2632 80.2499 81.4999C82.6142 81.2632 84.7551 82.9052 85.1395 85.2499H75.3604ZM66.5001 75.8749L71.0003 79.2502C71.3149 79.4864 71.5001 79.8567 71.5001 80.25C71.5001 80.6433 71.3149 81.0138 71.0003 81.2498L66.5001 84.625V85.2501C66.4985 86.6301 65.3801 87.7485 64.0001 87.7501H27.75C26.3699 87.7485 25.2516 86.6301 25.25 85.2501V75.25C25.2516 73.87 26.37 72.7516 27.75 72.75H64.0001C65.3803 72.7516 66.4985 73.87 66.5001 75.25V75.8749ZM64.0001 84C63.9999 83.6065 64.1851 83.2362 64.4999 83.0002L68.1668 80.25L64.4999 77.4998C64.1851 77.2638 63.9999 76.8933 64.0001 76.5V75.25H27.75V85.2499H64.0001V84ZM25.6159 49.8839C25.8503 50.1183 26.1683 50.25 26.4999 50.25H38.9999C39.3314 50.2501 39.6494 50.1184 39.8839 49.8839C40.1183 49.6495 40.25 49.3315 40.25 48.9999C40.3893 46.228 38.8969 43.6302 36.4321 42.3542C38.2631 40.3611 38.1758 37.2729 36.2351 35.3864C34.2945 33.4998 31.2051 33.4998 29.2645 35.3864C27.3239 37.2729 27.2366 40.361 29.0675 42.3542C26.6029 43.6302 25.1105 46.228 25.2497 48.9999C25.2498 49.3314 25.3815 49.6494 25.6159 49.8839ZM32.75 36.4999C34.1307 36.4999 35.25 37.6192 35.25 39C35.25 40.3807 34.1306 41.4999 32.75 41.4999C31.3699 41.4983 30.2515 40.3799 30.2499 38.9998C30.2499 37.6192 31.3692 36.4999 32.75 36.4999ZM32.75 43.9999C35.1142 43.7632 37.2551 45.4052 37.6395 47.7499H27.8603C28.2447 45.4052 30.3857 43.7631 32.75 43.9999ZM46.5 47.125L42 43.7498C41.6852 43.5138 41.5 43.1435 41.5 42.7501C41.5 42.3568 41.6852 41.9864 41.9998 41.7504L46.5 38.3751V37.75C46.5016 36.3699 47.62 35.2516 49 35.25H85.25C86.6301 35.2516 87.7485 36.37 87.7501 37.75V47.7501C87.7485 49.1301 86.6301 50.2485 85.25 50.2501H49C47.62 50.2485 46.5016 49.1301 46.5 47.7501V47.125ZM49 39C49.0003 39.3933 48.815 39.7638 48.5002 39.9998L44.8333 42.7501L48.5002 45.5004C48.815 45.7364 49.0001 46.1068 49 46.5001V47.7501H85.25V37.7537L49 37.75V39ZM25.6159 68.6339C25.8503 68.8683 26.1683 69 26.4999 69H38.9999C39.3314 69.0001 39.6494 68.8684 39.8839 68.6339C40.1183 68.3995 40.25 68.0815 40.25 67.7499C40.3893 64.978 38.8969 62.3802 36.4321 61.1042C38.2631 59.1111 38.1758 56.0229 36.2351 54.1364C34.2945 52.2498 31.2051 52.2498 29.2645 54.1364C27.3239 56.0229 27.2366 59.111 29.0675 61.1042C26.6029 62.3802 25.1105 64.978 25.2497 67.7499C25.2498 68.0814 25.3815 68.3994 25.6159 68.6339ZM32.75 55.2499C34.1307 55.2499 35.25 56.3692 35.25 57.75C35.25 59.1307 34.1306 60.2499 32.75 60.2499C31.3699 60.2483 30.2515 59.1299 30.2499 57.7498C30.2499 56.3692 31.3692 55.2499 32.75 55.2499ZM32.75 62.7499C35.1142 62.5132 37.2551 64.1552 37.6395 66.4999H27.8603C28.2447 64.1552 30.3857 62.5131 32.75 62.7499ZM46.5 65.8751L42 62.4998C41.6852 62.2638 41.5 61.8935 41.5 61.5001C41.5 61.1068 41.6852 60.7364 41.9998 60.5004L46.5 57.1251V56.5C46.5016 55.1199 47.62 54.0016 49 54H85.25C86.6301 54.0016 87.7485 55.12 87.7501 56.5V66.5001C87.7485 67.8801 86.6301 68.9985 85.25 69.0002H49C47.62 68.9985 46.5016 67.8801 46.5 66.5001V65.8751ZM49 57.75C49.0003 58.1435 48.815 58.5138 48.5002 58.7498L44.8333 61.5001L48.5002 64.2504C48.815 64.4864 49.0001 64.8568 49 65.2502V66.5001H85.25V56.5037L49 56.5V57.75Z" fill="#2B2D42"/>
</svg>
