<svg id="Capa_1" enable-background="new 0 0 512 512" height="512" viewBox="0 0 512 512" width="512" xmlns="http://www.w3.org/2000/svg"><g><g><path d="m376.413 17.305c-38.465 9.55-71.374 42.893-85.739 60.955-14.365-18.062-47.228-49.224-85.739-60.955-49.356-15.034-93.421 3.732-93.421 31.875 0 28.142 42.519 59.092 93.421 70.039 24.739 5.321 47.868 5.769 64.878.288v152.582h41.543v-152.667c17.021 5.515 40.216 5.059 65.056-.203 51.675-10.947 93.421-41.897 93.421-70.039.001-28.143-43.345-44.307-93.42-31.875z" fill="#a1e8c3"/><path d="m432.18 15.313c3.018 3.981 4.688 8.551 4.688 13.585 0 23.526-9.22 46.889-54.64 60.158s-76.67 1.448-90.898-3.163c0 0-29.579 15.079-48.952 17.159-19.374 2.079-83.143-3.423-112.142-32.422 0 0 20.045 41.691 70.947 52.638 21.845 4.698 52.149 5.58 69.744 2.875l-1.114 145.946h41.543v-152.667c17.021 5.515 40.216 5.059 65.056-.203 51.675-10.947 93.421-41.896 93.421-70.039.001-16.581-15.049-29.001-37.653-33.867z" fill="#85adc2"/><path d="m443.463 387.729c0 69.313-305.791 69.313-305.791 0s68.454-125.502 152.896-125.502c84.441 0 152.895 56.189 152.895 125.502z" fill="#a07575"/><path d="m371.142 281.058c15.203 16.875 22.913 38.067 19.535 59.605-6.774 43.186-200.182 12.848-193.408-30.339 1.677-10.692 5.933-20.465 12.193-28.994-43.117 22.192-71.79 61.543-71.79 106.398 0 69.313 305.791 69.313 305.791 0 0-45.038-28.909-84.528-72.321-106.67z" fill="#925873"/><path d="m6.558 315.463 24.137-15.416s-1.183-19.659 10.723-40.015c15.658-26.771 41.827-42.104 84.251-37.278 42.423 4.826 101.967 21.69 126.476 28.899 24.033 7.068 48.436 18.192 41.94 45.238-5.83 24.274-26.842 28.073-60.756 19.837 0 0-48.826-10.364-54.166-9.049-33.62 8.275 18.874 46.137 31.182 53.521 21.717 13.03 90.348 45.774 105.843 46.768 15.495.993 145.245-43.378 145.245-43.378 22.314-5.492 33.52 11.202 38.283 24.821s3.248 35.455-18.284 44.698c0 0-123.305 54.023-161.224 54.48-14.004.169-140.465-30.063-197.782-52.099l-115.723 63.569" fill="#efc5b4"/><path d="m499.715 389.413c-4.647-13.289-10.127-24.244-31.377-19.921 3.312 11.079 4.968 30.542-13.127 37.193 0 0-108.565 42.782-143.304 42.663-11.431-.039-115.31-28.534-175.174-47.894-12.811-4.143-26.744-2.967-38.672 3.278l-91.412 47.863.104 50.331 115.673-66.436c57.317 22.036 183.778 52.268 197.782 52.099 37.919-.457 161.224-54.48 161.224-54.48 21.531-9.241 23.046-31.077 18.283-44.696z" fill="#d994b3"/><path d="m420.083 193.11c0 4.53-3.672 8.202-8.202 8.202s-8.202-3.672-8.202-8.202 3.672-8.202 8.202-8.202c4.529 0 8.202 3.672 8.202 8.202z" fill="#a2e9c4"/><circle cx="478.337" cy="263.193" fill="#a2e9c4" r="15.049"/><path d="m64.671 98.272 8.708 24.485c.373 1.048 1.111 1.879 2.042 2.299l21.754 9.801c3.073 1.385 3.073 6.281 0 7.666l-21.754 9.801c-.931.42-1.67 1.25-2.042 2.299l-8.708 24.485c-1.23 3.459-5.581 3.459-6.811 0l-8.708-24.485c-.373-1.048-1.111-1.879-2.042-2.299l-21.754-9.801c-3.073-1.385-3.073-6.281 0-7.666l21.754-9.801c.932-.42 1.67-1.25 2.042-2.299l8.708-24.485c1.23-3.459 5.581-3.459 6.811 0z" fill="#cdf4e3"/></g><g><path d="m509.201 386.095c-8.792-25.144-27.548-36.831-50.17-31.263-.287.071-.571.154-.85.25-2.844.973-5.704 1.946-8.575 2.919-6.714-25.179-21.954-48.238-44.548-66.784-23.236-19.072-52.206-31.646-83.651-36.625v-122.522c16.158 2.54 35.598 1.534 57.089-3.02 26.459-5.605 51.326-16.384 70.021-30.352 20.227-15.113 31.367-32.699 31.367-49.519 0-11.917-5.527-22.538-15.984-30.716-19.896-15.559-54.347-19.74-89.908-10.912-37.655 9.349-68.712 39.091-83.33 55.252-19.044-20.801-49.376-44.932-82.798-55.112-33.453-10.189-67.367-6.79-88.51 8.872-11.535 8.545-17.889 20.129-17.889 32.616 0 16.767 11.25 34.359 31.679 49.535 18.746 13.927 43.492 24.697 69.679 30.329 21.378 4.597 40.767 5.63 56.942 3.099v111.33c-1.637-.52-3.24-1.007-4.784-1.461-30.361-8.929-87.385-24.602-128.176-29.243-43.169-4.911-74.815 9.284-94.061 42.189-9.395 16.063-11.572 31.78-12.021 39.945l-16.621 12.208c-4.473 3.286-5.437 9.576-2.151 14.049s9.576 5.436 14.049 2.151l20.645-15.162c2.75-2.02 4.29-5.249 4.086-8.654-.009-.169-.732-17.126 9.363-34.387 15.07-25.762 39.425-36.351 74.44-32.366 39.286 4.469 95.039 19.809 124.776 28.555 33.325 9.801 38.095 20.38 35.003 33.25-1.971 8.205-5.566 11.212-8.1 12.759-7.382 4.509-21.011 4.394-40.512-.341-.095-.023-.189-.044-.285-.065-51.078-10.842-56.581-9.487-58.654-8.977-14.42 3.549-17.789 12.152-18.514 16.965-1.499 9.948 4.802 20.92 19.829 34.53 10.724 9.713 22.415 17.593 27.098 20.402 17.971 10.783 91.05 46.941 110.37 48.18 3.757.24 11.573.743 82.131-21.771 31.891-10.176 62.491-20.586 66.556-21.972 11.997-2.772 20.741 3.441 25.998 18.475.331.947 7.871 23.29-12.83 32.176-33.78 14.798-127.891 53.281-157.309 53.636-.013 0-.024 0-.037 0-12.61 0-136.495-29.314-194.021-51.43-2.864-1.1-6.073-.832-8.715.726l-107.671 63.566c-4.779 2.822-6.366 8.984-3.545 13.763 1.875 3.176 5.225 4.942 8.663 4.942 1.737 0 3.496-.451 5.1-1.397l103.524-61.121c58.898 21.738 180.757 51.048 196.79 51.047.05 0 .1 0 .149-.001 39.506-.476 160.024-53.085 165.066-55.294 25.018-10.737 30.913-36.928 23.807-57.249zm-233.47-274.71c-2.596-1.892-5.939-2.427-8.999-1.442-14.747 4.752-35.943 4.557-59.683-.548-23.439-5.041-45.429-14.564-61.919-26.814-14.976-11.126-23.565-23.3-23.565-33.401 0-7.637 5.304-13.169 9.753-16.465 12.059-8.933 37.81-15.811 70.69-5.796 36.458 11.105 67.945 41.429 80.802 57.597 1.906 2.398 4.802 3.795 7.866 3.795 3.063 0 5.959-1.397 7.865-3.794 6.209-7.808 39.261-47.27 80.295-57.457 33.259-8.259 60.469-2.316 72.683 7.237 5.486 4.29 8.267 9.298 8.267 14.884 0 20.334-34.337 49.379-85.454 60.208-23.919 5.068-45.183 5.235-59.876.474-3.056-.99-6.407-.458-9.008 1.432-2.601 1.891-4.139 4.912-4.139 8.128v133.053c-3.56-.191-7.141-.297-10.74-.297-3.114 0-6.209.1-9.294.244-.468-.262-.937-.522-1.41-.775v-132.14c-.002-3.213-1.538-6.232-4.134-8.123zm41.168 286.555c-.023 0-.047-.001-.069-.001-12.367-.792-78.555-31.7-101.315-45.356-4.456-2.673-14.227-9.437-22.884-17.114-10.071-8.93-13.494-14.601-14.293-16.92.507-.257 1.32-.595 2.56-.938 5.496.093 29.931 4.618 50.206 8.918 25.501 6.174 43.167 5.514 55.588-2.074 8.639-5.278 14.414-13.762 17.165-25.217 2.341-9.748 1.57-18.73-2.177-26.611 63.904 3.993 116.151 42.119 128.801 91.794-53.308 17.725-105.108 33.519-113.582 33.519z" fill="#3c122c"/><g fill="#fff"><path d="m222.807 66.19c-1.532 0-3.087-.351-4.546-1.093-9.923-5.044-19.821-8.282-29.419-9.627-5.496-.77-9.328-5.85-8.558-11.347s5.857-9.326 11.346-8.558c11.804 1.653 23.828 5.561 35.738 11.614 4.948 2.515 6.92 8.565 4.405 13.513-1.772 3.489-5.303 5.498-8.966 5.498z"/><path d="m149.035 60.698c-3.855 0-7.532-2.23-9.194-5.982-2.248-5.074.043-11.011 5.118-13.259 3.207-1.421 6.673-2.64 10.595-3.729 5.348-1.485 10.886 1.649 12.371 6.997 1.483 5.348-1.649 10.887-6.997 12.371-2.966.823-5.527 1.719-7.828 2.738-1.323.587-2.705.864-4.065.864z"/><path d="m138.352 269.398c-.438 0-.881-.028-1.327-.087-4.235-.559-8.355-.852-12.243-.872-5.55-.029-10.026-4.551-9.998-10.101.028-5.532 4.522-9.998 10.049-9.998h.052c4.73.024 9.699.376 14.769 1.045 5.503.726 9.375 5.775 8.649 11.278-.668 5.056-4.986 8.735-9.951 8.735z"/><path d="m70.774 299.336c-.929 0-1.873-.13-2.81-.402-5.329-1.55-8.394-7.126-6.845-12.456 3.195-10.99 11.617-20.599 25.032-28.559 4.773-2.832 10.939-1.258 13.771 3.514 2.832 4.773 1.259 10.939-3.514 13.771-8.885 5.272-14.264 10.953-15.988 16.885-1.277 4.393-5.29 7.247-9.646 7.247z"/></g></g></g></svg>