<svg width="111" height="111" viewBox="0 0 111 111" fill="none" xmlns="http://www.w3.org/2000/svg">
<path fill-rule="evenodd" clip-rule="evenodd" d="M95.8262 4H15.5508C9.47565 4 4.55078 8.92488 4.55078 15V95.2755C4.55078 101.351 9.47566 106.275 15.5508 106.275H95.8262C101.901 106.275 106.826 101.351 106.826 95.2755V15C106.826 8.92487 101.901 4 95.8262 4ZM15.5508 0C7.26651 0 0.550781 6.71574 0.550781 15V95.2755C0.550781 103.56 7.26652 110.275 15.5508 110.275H95.8262C104.111 110.275 110.826 103.56 110.826 95.2755V15C110.826 6.71573 104.111 0 95.8262 0H15.5508Z" fill="#2B2D42"/>
<path d="M76.2895 69.2895C88.8796 56.6995 89.4302 36.6433 77.9307 23.4098L78.2329 23.1077C79.1727 22.168 79.1727 20.6444 78.2329 19.7048C77.2932 18.7651 75.7696 18.765 74.83 19.7048C72.8002 21.7346 70.5977 23.9371 68.5515 25.9833C58.6362 17.7876 43.8816 18.3262 34.6044 27.6023C34.6041 27.6026 34.6037 27.6029 34.6034 27.6032C25.3252 36.8815 24.7883 51.6371 32.9834 61.5514C31.1478 63.3869 29.5941 64.9406 26.7048 67.8299C25.7651 68.7696 25.7651 70.2932 26.7048 71.2328C27.6445 72.1725 29.1681 72.1726 30.1077 71.2328L30.4099 70.9307C36.6448 76.3487 44.7881 79.4428 53.6718 79.133V91.1876H42.8437C41.5147 91.1876 40.4375 92.265 40.4375 93.5938C40.4375 94.9227 41.5147 96.0001 42.8437 96.0001H69.3125C70.6415 96.0001 71.7187 94.9227 71.7187 93.5938C71.7187 92.265 70.6415 91.1876 69.3125 91.1876H58.4843V78.6221C65.1931 77.4196 71.3686 74.2104 76.2895 69.2895V69.2895ZM66.9313 31.0063C67.3742 31.4491 67.7337 33.3222 65.9248 37.2417C64.3102 40.7401 61.6066 44.5209 58.4016 47.9985L49.9391 39.536C53.4168 36.3311 57.1976 33.6275 60.696 32.0129C62.9594 30.9683 64.54 30.6469 65.5572 30.6469C66.3016 30.6469 66.7442 30.8191 66.9313 31.0063V31.0063ZM54.9986 51.4016C51.5209 54.6065 47.7401 57.3101 44.2417 58.9247C40.3224 60.7338 38.4491 60.3743 38.0064 59.9314C37.5635 59.4887 37.2041 57.6156 39.013 53.6961C40.6276 50.1977 43.3311 46.4169 46.5361 42.9392L54.9986 51.4016ZM58.3926 54.7954L65.1293 61.5322C59.0909 66.2985 50.9657 67.1736 44.1605 64.1577C49.2267 62.3399 54.4457 58.4605 58.3926 54.7954ZM68.5324 58.1293L61.7956 51.3925C65.4897 47.4143 69.3464 42.2077 71.1572 37.1587C74.174 43.9643 73.299 52.0904 68.5324 58.1293ZM60.7788 26.7807C55.7257 28.5927 50.5239 32.4477 46.5453 36.142L39.8085 29.4053C45.8016 24.6746 53.9138 23.7377 60.7788 26.7807V26.7807ZM36.4055 32.8083L43.1422 39.5451C39.4482 43.5234 35.5914 48.7299 33.7807 53.7789C30.7637 46.9733 31.6389 38.8473 36.4055 32.8083V32.8083ZM33.8234 67.5171L36.3864 64.9542C46.2771 73.1299 61.0327 72.6358 70.3345 63.3343C79.6126 54.0566 80.1498 39.3007 71.9545 29.3862L74.5173 26.8232C83.9965 37.9951 83.7477 55.0252 72.8868 65.8864C62.0283 76.7448 44.9991 76.9996 33.8234 67.5171V67.5171Z" fill="#2B2D42"/>
</svg>
