<svg id="Capa_1" enable-background="new 0 0 512 512" height="512" viewBox="0 0 512 512" width="512" xmlns="http://www.w3.org/2000/svg"><g><g><g><g><g><g><g><circle cx="256" cy="256" fill="#ffce00" r="256"/></g></g></g></g></g></g><path d="m511.491 272.276-202.94-202.94-46.551 172.887-127.367 56.875 65.497 65.497-99.108 13.247 133.557 133.274c7.062.585 14.207.884 21.421.884 135.918 0 247.096-105.923 255.491-239.724z" fill="#ffa300"/><g><path d="m218.86 69.336h74.28v196.778h-74.28z" fill="#1dd882"/></g><g><path d="m256.028 69.336h37.112v196.778h-37.112z" fill="#2cc47f"/></g><g><path d="m381.104 389.915h-250.208c-23.751 0-43.004-19.254-43.004-43.004 0-23.751 19.254-43.004 43.004-43.004h250.208c23.751 0 43.004 19.254 43.004 43.004 0 23.75-19.254 43.004-43.004 43.004z" fill="#1dd882"/></g><g><path d="m381.104 303.906h-125.076v86.009h125.076c23.75 0 43.004-19.253 43.004-43.004 0-23.752-19.254-43.005-43.004-43.005z" fill="#2cc47f"/></g><g><path d="m353.409 309.191h-194.818c-18.493 0-33.484-14.991-33.484-33.484 0-18.493 14.991-33.484 33.484-33.484h194.818c18.493 0 33.484 14.991 33.484 33.484 0 18.493-14.991 33.484-33.484 33.484z" fill="#2cc47f"/></g><g><path d="m353.409 242.223h-97.381v66.969h97.381c18.493 0 33.484-14.991 33.484-33.484 0-18.494-14.991-33.485-33.484-33.485z" fill="#06b26b"/></g><g><path d="m272.615 219.852-16.615-14.661-16.615 14.661v-72.326h33.23z" fill="#ff6c52"/></g><g><path d="m272.615 147.526h-16.587v57.69l16.587 14.636z" fill="#ff432e"/></g><g><path d="m279.948 168.377h-47.897c-10.317 0-19.225-7.225-21.353-17.32l-13.055-61.911c-2.86-13.566 7.489-26.325 21.353-26.325h74.006c13.864 0 24.214 12.76 21.353 26.325l-13.055 61.911c-2.127 10.095-11.035 17.32-21.352 17.32z" fill="#2cc47f"/></g><g><path d="m293.003 62.82h-36.975v105.556h23.92c10.317 0 19.224-7.225 21.353-17.32l13.054-61.911c2.862-13.565-7.488-26.325-21.352-26.325z" fill="#06b26b"/></g><g><g><ellipse cx="229.855" cy="109.897" fill="#555a66" rx="11.24" ry="11.24" transform="matrix(.924 -.383 .383 .924 -24.559 96.327)"/></g><g><ellipse cx="282.145" cy="109.897" fill="#333940" rx="11.24" ry="11.24" transform="matrix(.924 -.383 .383 .924 -20.579 116.337)"/></g></g></g></svg>