<svg width="22" height="22" viewBox="0 0 22 22" fill="none" xmlns="http://www.w3.org/2000/svg">
<path d="M21.7312 20.4358L15.475 14.1796C16.6868 12.6827 17.4165 10.7806 17.4165 8.70899C17.4165 3.90754 13.5097 0.000732422 8.70822 0.000732422C3.90677 0.000732422 0 3.9075 0 8.70895C0 13.5104 3.90681 17.4172 8.70826 17.4172C10.7799 17.4172 12.682 16.6876 14.1789 15.4757L20.4351 21.7319C20.6138 21.9107 20.8484 22.0005 21.0831 22.0005C21.3178 22.0005 21.5525 21.9107 21.7312 21.7319C22.0896 21.3735 22.0896 20.7942 21.7312 20.4358ZM8.70826 15.5839C4.91695 15.5839 1.83333 12.5003 1.83333 8.70895C1.83333 4.91764 4.91695 1.83402 8.70826 1.83402C12.4996 1.83402 15.5832 4.91764 15.5832 8.70895C15.5832 12.5003 12.4995 15.5839 8.70826 15.5839Z" fill="#2B2D42"/>
</svg>
