<svg width="111" height="111" viewBox="0 0 111 111" fill="none" xmlns="http://www.w3.org/2000/svg">
<path fill-rule="evenodd" clip-rule="evenodd" d="M95.2755 4.14966H15C8.92487 4.14966 4 9.07453 4 15.1497V95.4251C4 101.5 8.92488 106.425 15 106.425H95.2755C101.351 106.425 106.275 101.5 106.275 95.4251V15.1497C106.275 9.07453 101.351 4.14966 95.2755 4.14966ZM15 0.149658C6.71573 0.149658 0 6.8654 0 15.1497V95.4251C0 103.709 6.71574 110.425 15 110.425H95.2755C103.56 110.425 110.275 103.709 110.275 95.4251V15.1497C110.275 6.86539 103.56 0.149658 95.2755 0.149658H15Z" fill="#2B2D42"/>
<g clip-path="url(#clip0)">
<path d="M26.3662 41.4H76.4667C76.4667 41.4 72.9872 40.35 72.9872 35.8H51.4164H22.9556C22.9556 38.2706 26.3662 41.4 26.3662 41.4Z" fill="black" fill-opacity="0.1"/>
<path d="M26.3662 29.5779H76.4667C76.4667 29.5779 72.9872 30.7445 72.9872 35.8001H51.4164H22.9556C22.9556 33.055 26.3662 29.5779 26.3662 29.5779Z" fill="black" fill-opacity="0.25"/>
<path d="M80.3226 60.0667H21.0889C21.0889 60.0667 23.3546 61.1867 24.3257 63.4266C25.2967 65.6666 25.2838 67.5103 25.2838 67.5103L85.1778 67.5333L83.8829 63.0533L80.3226 60.0667Z" fill="black" fill-opacity="0.25"/>
<path d="M24.3257 71.6403C23.3546 73.8803 21.0889 75.0003 21.0889 75.0003H60.6V67.543H25.2937C25.2937 67.543 25.2967 69.4003 24.3257 71.6403Z" fill="black" fill-opacity="0.1"/>
<path d="M81.5577 73.9857L78.0154 75H74.6C74.6 75 74.6 73.7325 74.6 71.6866C74.6 69.6401 74.6 68.1555 74.6 68.1555H84.5555V69.423L84.283 70.9437L83.1929 72.465L81.5577 73.9857Z" fill="#2F0C2B" fill-opacity="0.1"/>
<path fill-rule="evenodd" clip-rule="evenodd" d="M28.9732 21.4889C21.5261 21.4889 15.4889 28.1483 15.4889 35.5954C15.4889 43.2685 21.7092 49.4889 29.3824 49.4889H32.7706C33.4579 49.4889 34.0151 50.046 34.0151 50.7333C34.0151 51.4206 33.4579 51.9778 32.7706 51.9778H29.3824C20.3346 51.9778 13 44.6431 13 35.5954C13 26.7737 20.1514 19 28.9732 19H75.1395C77.9345 19 80.2 21.2656 80.2 24.0605C80.2 26.8554 77.9345 29.7433 75.1395 29.7433H29.9803C26.7852 29.7433 24.1951 32.3334 24.1951 35.5285C24.1951 38.7235 26.7853 41.3137 29.9803 41.3137H74.8682C77.8132 41.3137 80.2 43.7009 80.2 46.6457C80.2 49.5905 77.8132 51.9778 74.8682 51.9778H72.4322C71.7446 51.9778 71.1877 51.4206 71.1877 50.7333C71.1877 50.046 71.7446 49.4889 72.4322 49.4889H74.8682C76.438 49.4889 77.7111 48.216 77.7111 46.6457C77.7111 45.0755 76.438 43.8026 74.8682 43.8026H29.9803C25.4107 43.8026 21.7062 40.0981 21.7062 35.5285C21.7062 30.9588 25.4107 27.2544 29.9803 27.2544H75.1395C76.5594 27.2544 77.7111 25.4808 77.7111 24.0605C77.7111 22.6403 76.5594 21.4889 75.1395 21.4889H28.9732Z" fill="#2B2D42"/>
<path fill-rule="evenodd" clip-rule="evenodd" d="M22.9726 51.9777C21.245 51.9777 19.8445 53.3782 19.8445 55.1058C19.8445 56.8334 21.245 58.234 22.9726 58.234H77.3204C82.4562 58.234 86.6195 62.3974 86.6195 67.5332C86.6195 72.669 82.4562 76.8323 77.3204 76.8323H75.6846C74.997 76.8323 74.4401 76.2754 74.4401 75.5879C74.4401 74.901 74.997 74.3434 75.6846 74.3434H77.3204C81.0811 74.3434 84.1306 71.2946 84.1306 67.5332C84.1306 63.7719 81.0811 60.723 77.3204 60.723H22.9726C19.8704 60.723 17.3556 58.208 17.3556 55.1058C17.3556 52.0036 19.8704 49.4888 22.9726 49.4888H34.2397C34.927 49.4888 35.4841 50.0459 35.4841 50.7332C35.4841 51.4205 34.927 51.9777 34.2397 51.9777H22.9726ZM57.758 50.7332C57.758 50.0459 58.3151 49.4888 59.0024 49.4888H78.8791C88.8869 49.4888 97 57.6019 97 67.6098C97 77.877 88.6772 86.1999 78.4099 86.1999H75.6846C74.997 86.1999 74.4401 85.643 74.4401 84.9554C74.4401 84.2679 74.997 83.711 75.6846 83.711H78.4099C87.3021 83.711 94.5111 76.5026 94.5111 67.6098C94.5111 58.9764 87.5118 51.9777 78.8791 51.9777H59.0024C58.3151 51.9777 57.758 51.4205 57.758 50.7332ZM17.3556 80.272C17.3556 76.9978 20.0097 74.3434 23.2838 74.3434H60.264C60.9516 74.3434 61.5085 74.901 61.5085 75.5879C61.5085 76.2754 60.9516 76.8323 60.264 76.8323H23.2838C21.3843 76.8323 19.8445 78.3723 19.8445 80.272C19.8445 82.171 21.3843 83.711 23.2838 83.711H60.264C60.9516 83.711 61.5085 84.2679 61.5085 84.9554C61.5085 85.643 60.9516 86.1999 60.264 86.1999H23.2838C20.0097 86.1999 17.3556 83.5461 17.3556 80.272Z" fill="#2B2D42"/>
<path fill-rule="evenodd" clip-rule="evenodd" d="M62.1555 68.7777V94.7916L66.0612 90.4752C66.8016 89.6576 68.0872 89.6576 68.8276 90.4752L68.8288 90.4758L72.7333 94.7916V68.7777H62.1555ZM59.6666 68.1555C59.6666 67.1245 60.5023 66.2888 61.5333 66.2888H73.3555C74.3865 66.2888 75.2222 67.1245 75.2222 68.1555V96.4069C75.2222 98.1136 73.1184 98.9275 71.9711 97.6588L67.4444 92.6555L62.9177 97.6588C61.7704 98.9275 59.6666 98.1136 59.6666 96.4069V68.1555Z" fill="#2B2D42"/>
<path fill-rule="evenodd" clip-rule="evenodd" d="M58.1111 86.2C58.1111 84.9979 59.0858 84.0222 60.2889 84.0222H61.5457V87.1333H61.2222V95.9316L62.6029 97.4205L61.7704 98.1927C61.7697 98.1933 61.7697 98.1933 61.7697 98.1933C60.3753 99.4869 58.1111 98.497 58.1111 96.5967V86.2ZM65.7812 92.8659L67.6118 90.41L74.9111 94.0761V97.0752C74.9111 99.0476 72.4993 100.003 71.1479 98.5685L65.7812 92.8659Z" fill="black" fill-opacity="0.25"/>
<path fill-rule="evenodd" clip-rule="evenodd" d="M62.1555 68.7777V94.7916L63.255 93.5764L66.0612 90.4752C66.8016 89.6576 68.0872 89.6576 68.8276 90.4752L68.8288 90.4758L72.7333 94.7916V68.7777H62.1555ZM61.0716 95.99C61.0716 95.99 61.0716 95.9894 61.0716 95.99V95.99ZM59.6666 68.1555C59.6666 67.1245 60.5023 66.2888 61.5333 66.2888H73.3555C74.3865 66.2888 75.2222 67.1245 75.2222 68.1555V96.4069C75.2222 98.1136 73.1184 98.9275 71.9711 97.6588L67.4444 92.6555L65.1005 95.2464L62.9177 97.6588C62.9177 97.6594 62.9177 97.6588 62.9177 97.6588C61.7704 98.9275 59.6666 98.1136 59.6666 96.4069V68.1555Z" fill="#2B2D42"/>
<path fill-rule="evenodd" clip-rule="evenodd" d="M52.8223 67.5333C52.8223 66.8457 53.3794 66.2888 54.0667 66.2888H83.9334C84.6209 66.2888 85.1778 66.8457 85.1778 67.5333C85.1778 68.2208 84.6209 68.7777 83.9334 68.7777H54.0667C53.3794 68.7777 52.8223 68.2208 52.8223 67.5333Z" fill="#2B2D42"/>
</g>
<defs>
<clipPath id="clip0">
<rect width="84" height="80.2667" fill="white" transform="translate(13 19)"/>
</clipPath>
</defs>
</svg>
