<svg width="1440" height="250" viewBox="0 0 1440 250" fill="none" xmlns="http://www.w3.org/2000/svg">
<g filter="url(#filter0_i)">
<path d="M0 25L720 200L1440 25L2160 125L2880 100L3600 50L4320 150L5040 200L5760 100L6480 0L7200 225L7920 50H8640L9360 75L10080 50L10800 200L11520 225H12240L12960 0L13680 125L14400 50L15120 150L15840 25L16560 200L17280 25V250H16560H15840H15120H14400H13680H12960H12240H11520H10800H10080H9360H8640H7920H7200H6480H5760H5040H4320H3600H2880H2160H1440H720H0V25Z" fill="#FAFAFA"/>
</g>
<defs>
<filter id="filter0_i" x="0" y="0" width="17280" height="260" filterUnits="userSpaceOnUse" color-interpolation-filters="sRGB">
<feFlood flood-opacity="0" result="BackgroundImageFix"/>
<feBlend mode="normal" in="SourceGraphic" in2="BackgroundImageFix" result="shape"/>
<feColorMatrix in="SourceAlpha" type="matrix" values="0 0 0 0 0 0 0 0 0 0 0 0 0 0 0 0 0 0 127 0" result="hardAlpha"/>
<feOffset dy="10"/>
<feGaussianBlur stdDeviation="7.5"/>
<feComposite in2="hardAlpha" operator="arithmetic" k2="-1" k3="1"/>
<feColorMatrix type="matrix" values="0 0 0 0 0 0 0 0 0 0 0 0 0 0 0 0 0 0 0.2 0"/>
<feBlend mode="normal" in2="shape" result="effect1_innerShadow"/>
</filter>
</defs>
</svg>
