<svg width="42" height="41" viewBox="0 0 42 41" fill="none" xmlns="http://www.w3.org/2000/svg">
<g clip-path="url(#clip0)">
<path d="M41.3 36.225H39.9V34.2125C39.9 33.842 39.5866 33.5417 39.2 33.5417H38.5V18.7833H39.2C39.5866 18.7833 39.9 18.483 39.9 18.1125V15.4292C39.9 15.0587 39.5866 14.7583 39.2 14.7583H38.5V12.7458C38.5 12.3754 38.1866 12.075 37.8 12.075H36.54L21.7 6.25753V4.025H26.6C26.9866 4.025 27.3 3.72463 27.3 3.35417V0.670833C27.3 0.300366 26.9866 0 26.6 0H21C20.6134 0 20.3 0.300366 20.3 0.670833V6.25753L5.46 12.075H4.2C3.81342 12.075 3.5 12.3754 3.5 12.7458V14.7583H2.8C2.41342 14.7583 2.1 15.0587 2.1 15.4292V18.1125C2.1 18.483 2.41342 18.7833 2.8 18.7833H3.5V33.5417H2.8C2.41342 33.5417 2.1 33.842 2.1 34.2125V36.225H0.7C0.313425 36.225 0 36.5254 0 36.8958V39.5792C0 39.9496 0.313425 40.25 0.7 40.25H41.3C41.6866 40.25 42 39.9496 42 39.5792V36.8958C42 36.5254 41.6866 36.225 41.3 36.225ZM21.7 1.34167H25.9V2.68333H21.7V1.34167ZM21 7.43283L32.8398 12.075H9.1602L21 7.43283ZM4.9 13.4167H37.1V14.7583H4.9V13.4167ZM3.5 16.1H38.5V17.4417H3.5V16.1ZM37.1 18.7833V33.5417H28.7V18.7833H37.1ZM21 26.1625C18.2953 26.1659 16.1035 28.2663 16.1 30.8583V33.5417H14.7V18.7833H27.3V33.5417H25.9V30.8583C25.8965 28.2663 23.7047 26.1659 21 26.1625ZM24.5 30.8583V33.5417H17.5V30.8583C17.5 29.0059 19.067 27.5042 21 27.5042C22.933 27.5042 24.5 29.0059 24.5 30.8583ZM13.3 18.7833V33.5417H4.9V18.7833H13.3ZM3.5 34.8833H38.5V36.225H3.5V34.8833ZM40.6 38.9083H1.4V37.5667H40.6V38.9083Z" fill="white"/>
<path d="M17.2373 4.6211L8.13501 8.19043L8.66519 9.43214L17.7675 5.86282L17.2373 4.6211Z" fill="white"/>
<path d="M6.65761 8.77069L5.33521 9.28906L5.86525 10.5309L7.18765 10.0125L6.65761 8.77069Z" fill="white"/>
<path d="M23.1 30.8584H21.7V32.2001H23.1V30.8584Z" fill="white"/>
<path d="M20.2999 30.8584H18.8999V32.2001H20.2999V30.8584Z" fill="white"/>
<path d="M8.4 20.7959H7V22.1376H8.4V20.7959Z" fill="white"/>
<path d="M11.2001 20.7959H9.80005V22.1376H11.2001V20.7959Z" fill="white"/>
<path d="M8.4 23.4792H7V24.8209H8.4V23.4792Z" fill="white"/>
<path d="M11.2001 23.4792H9.80005V24.8209H11.2001V23.4792Z" fill="white"/>
<path d="M18.9 20.7959H17.5V22.1376H18.9V20.7959Z" fill="white"/>
<path d="M21.7 20.7959H20.3V22.1376H21.7V20.7959Z" fill="white"/>
<path d="M24.5001 20.7959H23.1001V22.1376H24.5001V20.7959Z" fill="white"/>
<path d="M18.9 23.4792H17.5V24.8209H18.9V23.4792Z" fill="white"/>
<path d="M21.7 23.4792H20.3V24.8209H21.7V23.4792Z" fill="white"/>
<path d="M24.5001 23.4792H23.1001V24.8209H24.5001V23.4792Z" fill="white"/>
<path d="M8.4 27.5042H7V28.8458H8.4V27.5042Z" fill="white"/>
<path d="M11.2001 27.5042H9.80005V28.8458H11.2001V27.5042Z" fill="white"/>
<path d="M8.4 30.1875H7V31.5292H8.4V30.1875Z" fill="white"/>
<path d="M11.2001 30.1875H9.80005V31.5292H11.2001V30.1875Z" fill="white"/>
<path d="M35.0001 20.7959H33.6001V22.1376H35.0001V20.7959Z" fill="white"/>
<path d="M32.2 20.7959H30.8V22.1376H32.2V20.7959Z" fill="white"/>
<path d="M35.0001 23.4792H33.6001V24.8209H35.0001V23.4792Z" fill="white"/>
<path d="M32.2 23.4792H30.8V24.8209H32.2V23.4792Z" fill="white"/>
<path d="M35.0001 27.5042H33.6001V28.8458H35.0001V27.5042Z" fill="white"/>
<path d="M32.2 27.5042H30.8V28.8458H32.2V27.5042Z" fill="white"/>
<path d="M35.0001 30.1875H33.6001V31.5292H35.0001V30.1875Z" fill="white"/>
<path d="M32.2 30.1875H30.8V31.5292H32.2V30.1875Z" fill="white"/>
<path d="M41.2999 22.1375H39.8999V28.175H41.2999V22.1375Z" fill="white"/>
<path d="M41.2999 29.5166H39.8999V30.8583H41.2999V29.5166Z" fill="white"/>
</g>
<defs>
<clipPath id="clip0">
<rect width="42" height="40.25" fill="white"/>
</clipPath>
</defs>
</svg>
