<svg width="53" height="53" viewBox="0 0 53 53" fill="none" xmlns="http://www.w3.org/2000/svg">
<g clip-path="url(#clip0)">
<path d="M26.454 53.0005C22.0133 53.0005 17.5474 51.8934 13.5023 49.6158C12.7518 49.1934 12.4858 48.2422 12.9086 47.4917C13.331 46.742 14.2814 46.474 15.0327 46.898C24.1314 52.021 35.6486 50.4346 43.0424 43.0421C52.163 33.921 52.163 19.0809 43.0424 9.95981C33.9213 0.838737 19.0804 0.838039 9.95851 9.95981C0.837899 19.0809 0.837899 33.921 9.95851 43.0421C10.5677 43.6512 10.5677 44.639 9.95851 45.2482C9.35016 45.8574 8.36237 45.8574 7.75321 45.2482C-2.58375 34.9104 -2.58375 18.0915 7.75321 7.7537C18.0902 -2.58326 34.9108 -2.58326 45.2477 7.7537C55.5847 18.0915 55.5847 34.9104 45.2477 45.2482C40.1558 50.3396 33.3355 53.0005 26.454 53.0005Z" fill="#2B2D42"/>
<path d="M34.7815 36.8513C34.3823 36.8513 33.9835 36.6994 33.6789 36.3947L17.1151 19.831C16.5059 19.2218 16.5059 18.234 17.1151 17.6248C17.7242 17.0157 18.7112 17.0157 19.3204 17.6248L35.8843 34.1887C36.4934 34.7979 36.4934 35.7857 35.8843 36.3949C35.5796 36.6995 35.1808 36.8513 34.7815 36.8513Z" fill="#2B2D42"/>
<path d="M18.2177 36.8513C17.8185 36.8513 17.4197 36.6994 17.1151 36.3947C16.5059 35.7856 16.5059 34.7978 17.1151 34.1886L33.6789 17.6248C34.288 17.0157 35.275 17.0157 35.8842 17.6248C36.4933 18.234 36.4933 19.2218 35.8842 19.831L19.3204 36.3949C19.0157 36.6995 18.6169 36.8513 18.2177 36.8513Z" fill="#2B2D42"/>
</g>
<defs>
<clipPath id="clip0">
<rect width="53" height="53" fill="white"/>
</clipPath>
</defs>
</svg>
