<svg width="79" height="79" viewBox="0 0 79 79" fill="none" xmlns="http://www.w3.org/2000/svg">
<path d="M39.5 57.9131C38.6478 57.9131 37.957 58.6039 37.957 59.4561C37.957 59.4581 37.957 59.4602 37.957 59.4622C37.957 59.4642 37.957 59.4664 37.957 59.4684V59.4807C37.957 60.3329 38.6478 61.0237 39.5 61.0237C40.3522 61.0237 41.043 60.3329 41.043 59.4807C41.043 59.4786 41.043 59.4767 41.043 59.4746C41.043 59.4724 41.043 59.4706 41.043 59.4684C41.043 59.4662 41.043 59.4642 41.043 59.4622C41.043 59.4602 41.043 59.4581 41.043 59.4561C41.043 58.6039 40.3522 57.9131 39.5 57.9131Z" fill="#FAFAFA"/>
<path d="M63.8789 0H15.1211C6.7832 0 0 6.7832 0 15.1211V63.8789C0 72.2168 6.7832 79 15.1211 79H39.5C40.3522 79 41.043 78.3092 41.043 77.457V65.499C41.043 64.6468 40.3522 63.9561 39.5 63.9561C38.6478 63.9561 37.957 64.6468 37.957 65.499V75.9141H15.1211C8.48494 75.9141 3.08594 70.5151 3.08594 63.8789V15.1211C3.08594 8.48494 8.48494 3.08594 15.1211 3.08594H63.8789C70.5151 3.08594 75.9141 8.48494 75.9141 15.1211V63.8789C75.9141 70.5151 70.5151 75.9141 63.8789 75.9141H54.0039V48.6808H62.9502C63.7427 48.6808 64.4061 48.0806 64.4855 47.2923L65.595 36.267C65.6387 35.833 65.4967 35.4009 65.2042 35.0775C64.9116 34.7541 64.4958 34.5696 64.0597 34.5696H54.0039V28.7802C54.0039 27.7324 54.3377 27.3428 55.2353 27.3428H63.9905C64.8426 27.3428 65.5334 26.652 65.5334 25.7998V15.0515C65.5334 14.1993 64.8426 13.5085 63.9905 13.5085H52.4927C45.9778 13.5085 42.5228 16.3701 40.7717 18.7707C38.3226 22.1279 37.9569 26.0927 37.9569 28.1572V34.6387H30.3963C29.5441 34.6387 28.8534 35.3295 28.8534 36.1817V47.1377C28.8534 47.9899 29.5441 48.6807 30.3963 48.6807H37.9569V53.0781C37.9569 53.9303 38.6477 54.6211 39.4998 54.6211C40.352 54.6211 41.0428 53.9303 41.0428 53.0781V47.1377C41.0428 46.2855 40.352 45.5947 39.4998 45.5947H31.9393V37.7245H39.4998C40.352 37.7245 41.0428 37.0337 41.0428 36.1815V28.157C41.0428 24.6804 42.1585 16.5943 52.4927 16.5943H62.4475V24.2567H55.2353C53.2437 24.2567 50.918 25.4414 50.918 28.7801V36.1124C50.918 36.9646 51.6088 37.6554 52.4609 37.6554H62.3537L61.5547 45.5947H52.4609C51.6088 45.5947 50.918 46.2855 50.918 47.1377V77.457C50.918 78.3092 51.6088 79 52.4609 79H63.8789C72.2168 79 79 72.2168 79 63.8789V15.1211C79 6.7832 72.2168 0 63.8789 0Z" fill="#FAFAFA"/>
<path d="M8.94922 15.8154C8.09704 15.8154 7.40625 16.5062 7.40625 17.3584V30.2422C7.40625 31.0944 8.09704 31.7852 8.94922 31.7852C9.8014 31.7852 10.4922 31.0944 10.4922 30.2422V17.3584C10.4922 16.5062 9.8014 15.8154 8.94922 15.8154Z" fill="#FAFAFA"/>
<path d="M8.94922 35.3926C8.09704 35.3926 7.40625 36.0834 7.40625 36.9355V36.9538C7.40625 37.8059 8.09704 38.4967 8.94922 38.4967C9.8014 38.4967 10.4922 37.8059 10.4922 36.9538V36.9355C10.4922 36.0834 9.8014 35.3926 8.94922 35.3926Z" fill="#FAFAFA"/>
</svg>
