<svg width="79" height="79" viewBox="0 0 79 79" fill="none" xmlns="http://www.w3.org/2000/svg">
<path d="M55.8555 0H23.1445C10.3826 0 0 10.3826 0 23.1445V55.8555C0 68.6174 10.3826 79 23.1445 79H55.8555C68.6174 79 79 68.6174 79 55.8555V23.1445C79 10.3826 68.6174 0 55.8555 0ZM75.9141 55.8555C75.9141 66.9158 66.9158 75.9141 55.8555 75.9141H23.1445C12.0842 75.9141 3.08594 66.9158 3.08594 55.8555V23.1445C3.08594 12.0842 12.0842 3.08594 23.1445 3.08594H55.8555C66.9158 3.08594 75.9141 12.0842 75.9141 23.1445V55.8555Z" fill="#FAFAFA"/>
<path d="M55.8555 6.78906H23.1445C14.126 6.78906 6.78906 14.126 6.78906 23.1445V55.8555C6.78906 64.874 14.126 72.2109 23.1445 72.2109H32.5566C33.4088 72.2109 34.0996 71.5201 34.0996 70.668C34.0996 69.8158 33.4088 69.125 32.5566 69.125H23.1445C15.8278 69.125 9.875 63.1722 9.875 55.8555V23.1445C9.875 15.8278 15.8278 9.875 23.1445 9.875H55.8555C63.1722 9.875 69.125 15.8278 69.125 23.1445V55.8555C69.125 63.1722 63.1722 69.125 55.8555 69.125H46.5463C45.6941 69.125 45.0033 69.8158 45.0033 70.668C45.0033 71.5201 45.6941 72.2109 46.5463 72.2109H55.8555C64.874 72.2109 72.2109 64.874 72.2109 55.8555V23.1445C72.2109 14.126 64.874 6.78906 55.8555 6.78906Z" fill="#FAFAFA"/>
<path d="M40.5909 69.5771C40.3039 69.2901 39.9058 69.125 39.5 69.125C39.0942 69.125 38.6961 69.2901 38.4091 69.5771C38.1221 69.8641 37.957 70.2622 37.957 70.668C37.957 71.0738 38.1221 71.4719 38.4091 71.7588C38.6961 72.0458 39.0942 72.2109 39.5 72.2109C39.9058 72.2109 40.3039 72.0458 40.5909 71.7588C40.8779 71.4719 41.043 71.0738 41.043 70.668C41.043 70.2622 40.8779 69.8641 40.5909 69.5771Z" fill="#FAFAFA"/>
<path d="M27.1299 24.0261C26.5471 23.4043 25.5709 23.3725 24.9489 23.955L24.8806 24.0193C24.2607 24.6041 24.2323 25.5806 24.8173 26.2004C25.1208 26.5221 25.5298 26.6845 25.9398 26.6845C26.3197 26.6845 26.7003 26.545 26.9984 26.2637L27.0588 26.2071C27.6806 25.6244 27.7125 24.6479 27.1299 24.0261Z" fill="#FAFAFA"/>
<path d="M39.5 18.207C36.111 18.207 32.7381 19.0234 29.7458 20.5679C28.9887 20.9588 28.6917 21.8895 29.0825 22.6468C29.4735 23.4039 30.4042 23.7008 31.1613 23.3101C33.7543 21.9716 36.5599 21.293 39.5 21.293C49.5393 21.293 57.707 29.4607 57.707 39.5C57.707 49.5393 49.5393 57.707 39.5 57.707C29.4607 57.707 21.293 49.5393 21.293 39.5C21.293 36.3494 22.11 33.2453 23.6557 30.5233C24.0765 29.7824 23.817 28.8406 23.0759 28.4196C22.3348 27.999 21.3931 28.2584 20.9722 28.9995C19.1632 32.1851 18.207 35.8162 18.207 39.5C18.207 51.2409 27.7591 60.793 39.5 60.793C51.2409 60.793 60.793 51.2409 60.793 39.5C60.793 27.7591 51.2409 18.207 39.5 18.207Z" fill="#FAFAFA"/>
<path d="M39.5 25.6133C31.8429 25.6133 25.6133 31.8429 25.6133 39.5C25.6133 47.1571 31.8429 53.3867 39.5 53.3867C47.1571 53.3867 53.3867 47.1571 53.3867 39.5C53.3867 31.8429 47.1571 25.6133 39.5 25.6133ZM39.5 50.3008C33.5444 50.3008 28.6992 45.4556 28.6992 39.5C28.6992 33.5444 33.5444 28.6992 39.5 28.6992C45.4556 28.6992 50.3008 33.5444 50.3008 39.5C50.3008 45.4556 45.4556 50.3008 39.5 50.3008Z" fill="#FAFAFA"/>
<path d="M59.7515 13.3857C56.5185 13.3857 53.8882 16.016 53.8882 19.249C53.8882 22.482 56.5185 25.1123 59.7515 25.1123C62.9844 25.1123 65.6147 22.482 65.6147 19.249C65.6147 16.016 62.9844 13.3857 59.7515 13.3857ZM59.7515 22.0264C58.2201 22.0264 56.9741 20.7804 56.9741 19.249C56.9741 17.7176 58.2201 16.4717 59.7515 16.4717C61.2829 16.4717 62.5288 17.7176 62.5288 19.249C62.5288 20.7804 61.2829 22.0264 59.7515 22.0264Z" fill="#FAFAFA"/>
</svg>
