<svg width="220" height="220" viewBox="0 0 220 220" fill="none" xmlns="http://www.w3.org/2000/svg">
<circle cx="110" cy="110" r="110" fill="#F1F1F1"/>
<path d="M73.4579 92.625H142.644C142.644 92.625 137.84 91.1484 137.84 84.75H108.051H68.748C68.748 88.2243 73.4579 92.625 73.4579 92.625Z" fill="#2B2D42" fill-opacity="0.1"/>
<path d="M73.4579 76H142.644C142.644 76 137.84 77.6406 137.84 84.75H108.051H68.748C68.748 80.8897 73.4579 76 73.4579 76Z" fill="#2B2D42" fill-opacity="0.25"/>
<path d="M147.969 118.875H66.1704C66.1704 118.875 69.2993 120.45 70.6403 123.6C71.9812 126.75 71.9635 129.343 71.9635 129.343L154.674 129.375L152.886 123.075L147.969 118.875Z" fill="#2B2D42" fill-opacity="0.25"/>
<path d="M70.6403 135.15C69.2993 138.3 66.1704 139.875 66.1704 139.875H120.733V129.389H71.9771C71.9771 129.389 71.9812 132 70.6403 135.15Z" fill="#2B2D42" fill-opacity="0.1"/>
<path d="M149.675 138.449L144.783 139.875H140.066C140.066 139.875 140.066 138.093 140.066 135.215C140.066 132.338 140.066 130.25 140.066 130.25H153.815V132.032L153.438 134.171L151.933 136.31L149.675 138.449Z" fill="#2B2D42" fill-opacity="0.1"/>
<path fill-rule="evenodd" clip-rule="evenodd" d="M77.0582 65.5C66.7741 65.5 58.437 73.9898 58.437 84.4623C58.437 95.2526 67.0271 104 77.6233 104H82.3023C83.2514 104 84.0208 104.783 84.0208 105.75C84.0208 106.717 83.2514 107.5 82.3023 107.5H77.6233C65.1288 107.5 55 97.1857 55 84.4623C55 72.0567 64.8758 62 77.0582 62H140.812C144.671 62 147.8 65.1861 147.8 69.1164C147.8 73.0467 144.671 76.2328 140.812 76.2328H78.449C74.0367 76.2328 70.4599 79.8751 70.4599 84.3682C70.4599 88.8612 74.0368 92.5036 78.449 92.5036H140.437C144.504 92.5036 147.8 95.8607 147.8 100.002C147.8 104.143 144.504 107.5 140.437 107.5H137.073C136.124 107.5 135.355 106.717 135.355 105.75C135.355 104.783 136.124 104 137.073 104H140.437C142.605 104 144.363 102.21 144.363 100.002C144.363 97.7936 142.605 96.0036 140.437 96.0036H78.449C72.1385 96.0036 67.0228 90.7942 67.0228 84.3682C67.0228 77.9421 72.1386 72.7327 78.449 72.7327H140.812C142.772 72.7327 144.363 71.1137 144.363 69.1164C144.363 67.1191 142.772 65.5 140.812 65.5H77.0582Z" fill="#2B2D42"/>
<path fill-rule="evenodd" clip-rule="evenodd" d="M68.772 107.5C66.3863 107.5 64.4522 109.47 64.4522 111.899C64.4522 114.328 66.3863 116.298 68.772 116.298H143.824C150.916 116.298 156.665 122.153 156.665 129.375C156.665 136.597 150.916 142.452 143.824 142.452H141.565C140.616 142.452 139.846 141.669 139.846 140.702C139.846 139.736 140.616 138.952 141.565 138.952H143.824C149.017 138.952 153.228 134.664 153.228 129.375C153.228 124.086 149.017 119.798 143.824 119.798H68.772C64.488 119.798 61.0151 116.261 61.0151 111.899C61.0151 107.536 64.488 104 68.772 104H84.3312C85.2804 104 86.0497 104.783 86.0497 105.75C86.0497 106.717 85.2804 107.5 84.3312 107.5H68.772ZM116.809 105.75C116.809 104.783 117.578 104 118.527 104H145.976C159.796 104 171 115.409 171 129.483C171 143.921 159.507 155.625 145.328 155.625H141.565C140.616 155.625 139.846 154.842 139.846 153.875C139.846 152.908 140.616 152.125 141.565 152.125H145.328C157.608 152.125 167.563 141.988 167.563 129.483C167.563 117.342 157.897 107.5 145.976 107.5H118.527C117.578 107.5 116.809 106.717 116.809 105.75ZM61.0151 147.289C61.0151 142.684 64.6803 138.952 69.2016 138.952H120.27C121.219 138.952 121.988 139.736 121.988 140.702C121.988 141.669 121.219 142.452 120.27 142.452H69.2016C66.5786 142.452 64.4522 144.617 64.4522 147.289C64.4522 149.959 66.5786 152.125 69.2016 152.125H120.27C121.219 152.125 121.988 152.908 121.988 153.875C121.988 154.842 121.219 155.625 120.27 155.625H69.2016C64.6803 155.625 61.0151 151.893 61.0151 147.289Z" fill="#2B2D42"/>
<path fill-rule="evenodd" clip-rule="evenodd" d="M122.882 131.125V167.707L128.275 161.637C129.298 160.487 131.073 160.487 132.096 161.637L132.097 161.638L137.489 167.707V131.125H122.882ZM119.445 130.25C119.445 128.8 120.599 127.625 122.023 127.625H138.349C139.772 127.625 140.926 128.8 140.926 130.25V169.979C140.926 172.379 138.021 173.523 136.437 171.739L130.186 164.703L123.934 171.739C122.35 173.523 119.445 172.379 119.445 169.979V130.25Z" fill="#2B2D42"/>
<path fill-rule="evenodd" clip-rule="evenodd" d="M117.296 155.625C117.296 153.935 118.642 152.562 120.303 152.562H122.039V156.938H121.592V169.31L123.499 171.404L122.349 172.49C122.349 172.491 122.348 172.491 122.348 172.491C122.348 172.491 122.348 172.491 122.348 172.491C120.423 174.31 117.296 172.918 117.296 170.245V155.625ZM127.888 164.999L130.416 161.545L140.496 166.701V170.918C140.496 173.692 137.166 175.036 135.299 173.018L127.888 164.999Z" fill="#2B2D42" fill-opacity="0.25"/>
<path fill-rule="evenodd" clip-rule="evenodd" d="M122.882 131.125V167.707L124.4 165.998L128.275 161.637C129.298 160.487 131.073 160.487 132.096 161.637L132.097 161.638L137.489 167.707V131.125H122.882ZM121.385 169.392C121.385 169.392 121.385 169.391 121.385 169.392V169.392ZM119.445 130.25C119.445 128.8 120.599 127.625 122.023 127.625H138.349C139.772 127.625 140.926 128.8 140.926 130.25V169.979C140.926 172.379 138.021 173.523 136.437 171.739L130.186 164.703L126.949 168.347L123.934 171.739C123.934 171.74 123.934 171.739 123.934 171.739C122.35 173.523 119.445 172.379 119.445 169.979V130.25Z" fill="#2B2D42"/>
<path fill-rule="evenodd" clip-rule="evenodd" d="M109.993 129.375C109.993 128.408 110.763 127.625 111.712 127.625H152.956C153.906 127.625 154.675 128.408 154.675 129.375C154.675 130.342 153.906 131.125 152.956 131.125H111.712C110.763 131.125 109.993 130.342 109.993 129.375Z" fill="#2B2D42"/>
</svg>
