<svg width="79" height="79" viewBox="0 0 79 79" fill="none" xmlns="http://www.w3.org/2000/svg">
<path d="M67.3796 11.4614C59.9884 4.07079 50.1611 0 39.7086 0C31.4875 0 23.619 2.52179 16.9541 7.29354C16.2609 7.78958 16.1012 8.75333 16.5973 9.44646C17.0939 10.1396 18.0577 10.2987 18.7502 9.80267C24.8883 5.40883 32.1354 3.08594 39.7086 3.08594C59.5846 3.08594 75.7551 19.2564 75.7551 39.1329C75.7551 59.0089 59.5846 75.1793 39.7086 75.1793C33.6537 75.1793 27.6657 73.649 22.3918 70.7536C22.0417 70.5619 21.6312 70.5131 21.2467 70.6167L4.07028 75.2589L8.75343 58.5454C8.86674 58.1416 8.81069 57.7094 8.59853 57.3484C5.36855 51.8444 3.66164 45.5459 3.66164 39.1329C3.66164 31.5591 5.98453 24.312 10.3784 18.1745C10.8744 17.482 10.7147 16.5182 10.0222 16.0222C9.32903 15.5261 8.36528 15.6852 7.86924 16.3784C3.09749 23.0427 0.575698 30.9112 0.575698 39.1329C0.575698 45.8732 2.31335 52.4977 5.60722 58.3369L0.365951 77.0406C0.215873 77.5752 0.365348 78.149 0.755309 78.5431C1.04944 78.8391 1.44543 79 1.85166 79C1.98607 79 2.12108 78.9825 2.25428 78.9464L21.4588 73.7563C27.0503 76.7078 33.3463 78.2653 39.708 78.2653C50.1611 78.2653 59.9884 74.1951 67.379 66.8033C74.7702 59.4127 78.841 49.5854 78.841 39.1323C78.841 28.6799 74.7708 18.8531 67.3796 11.4614Z" fill="#FAFAFA"/>
<path d="M65.0007 57.8366C65.7095 58.3098 66.6678 58.1187 67.1409 57.4099C70.7573 51.9914 72.6691 45.6713 72.6691 39.1323C72.6691 30.3278 69.2408 22.05 63.0159 15.8251C56.791 9.60016 48.5138 6.17188 39.7086 6.17188C30.9035 6.17188 22.6257 9.60016 16.4008 15.8251C10.1758 22.05 6.74756 30.3278 6.74756 39.1329C6.74756 44.9974 8.30801 50.7558 11.2601 55.7862L12.2558 57.4834L9.23921 68.2492C9.08913 68.7833 9.23801 69.357 9.62857 69.7512C10.0191 70.1454 10.5917 70.2997 11.1275 70.1551L22.2417 67.1511L23.8763 68.0485C28.6969 70.6951 34.1714 72.0934 39.708 72.0934C46.2476 72.0934 52.5677 70.1816 57.9856 66.5646C58.6944 66.0921 58.8854 65.1338 58.4123 64.425C57.9392 63.7162 56.9814 63.5251 56.2726 63.9982C51.3635 67.2752 45.6358 69.0075 39.708 69.0075C34.6892 69.0075 29.7282 67.7405 25.3614 65.3435L23.182 64.1465C22.8324 63.9548 22.422 63.906 22.0368 64.0097L12.9429 66.4676L15.4045 57.6841C15.5172 57.2803 15.4617 56.8482 15.2496 56.4871L13.9212 54.2239C11.2469 49.6667 9.8335 44.4483 9.8335 39.1323C9.8335 22.6593 23.2356 9.25781 39.7086 9.25781C56.1816 9.25781 69.5832 22.6593 69.5832 39.1329C69.5832 45.0595 67.8509 50.7872 64.5739 55.697C64.1008 56.4058 64.2919 57.3635 65.0007 57.8366Z" fill="#FAFAFA"/>
<path d="M34.0696 34.3931L34.1715 34.2744C35.5536 32.723 35.2046 30.9009 34.6682 29.6461C33.8756 27.7927 31.8022 23.0553 31.6057 22.6069C31.2995 21.833 30.2779 20.607 28.2232 20.5643C26.6212 20.5317 26.0944 20.5769 25.9715 20.592C25.9588 20.5932 25.9462 20.595 25.9341 20.5968C25.6978 20.6312 20.1407 21.5304 19.1812 29.8594C18.74 33.6885 20.5132 38.2499 24.4514 43.4183C28.8115 49.1399 32.8196 52.5471 38.7468 55.5692C41.6983 57.0742 46.0096 58.8359 50.0231 58.8359C50.1533 58.8359 50.2835 58.8341 50.4125 58.8299C54.9202 58.6985 57.3275 56.8252 58.5528 55.2768C59.8535 53.6332 60.1253 52.0137 60.1645 51.7328C60.1904 51.5544 60.2531 50.9915 60.2929 49.5251C60.3483 47.4704 59.1718 46.3915 58.4136 46.0486C57.9851 45.8358 53.5671 43.6455 51.7559 42.7673C50.533 42.1737 48.7351 41.8349 47.1168 43.5907C47.1083 43.5997 47.1005 43.6087 47.0927 43.6166C46.8739 43.8076 46.6575 44.0927 45.9999 44.9727C45.5949 45.5145 44.7866 46.5958 44.4431 46.9569C43.7174 47.0081 41.2909 45.9395 37.8511 43.276C35.6831 41.5969 33.3681 38.9828 32.0873 36.7684C32.0746 36.7371 32.0668 36.6798 32.0704 36.6509C32.6014 36.1048 33.4657 35.1013 34.0696 34.3931ZM35.9616 45.7159C36.9898 46.5121 39.0059 47.9954 40.9551 48.9844C41.8767 49.4515 44.6812 50.8746 46.4104 49.3442C46.8877 48.9217 47.5658 48.0315 48.4711 46.82C48.7321 46.4711 49.0527 46.0425 49.1769 45.8943C49.2576 45.8207 49.3245 45.7484 49.3854 45.6821C49.6633 45.3807 49.7898 45.2433 50.4088 45.5435C52.2676 46.4451 56.905 48.7451 57.0713 48.8271C57.1286 48.8844 57.2178 49.0706 57.2075 49.4413C57.1732 50.7203 57.1232 51.1825 57.1129 51.2693C57.1063 51.3013 57.1093 51.282 57.1057 51.317C57.0876 51.4218 56.8935 52.4561 56.0431 53.4717C54.8437 54.905 52.9192 55.6698 50.3226 55.7452C46.851 55.8482 42.8748 54.2106 40.1481 52.8201C34.6006 49.991 31.0114 46.9358 26.9051 41.5474C23.5154 37.0993 21.9043 33.1792 22.2461 30.212C22.8898 24.6254 25.9516 23.7478 26.362 23.655C26.5067 23.646 26.9961 23.6255 28.1594 23.6496C28.53 23.6574 28.7115 23.7557 28.7663 23.8153C28.8428 23.9901 31.0181 28.959 31.8299 30.8588C32.2356 31.808 31.9866 32.0877 31.8667 32.2221C31.845 32.2462 31.8263 32.2679 31.81 32.286L31.7214 32.3903C30.83 33.4348 30.2026 34.1454 29.8566 34.5004C28.7175 35.6709 28.8254 37.291 29.4088 38.3012C30.8927 40.8724 33.4651 43.7823 35.9616 45.7159Z" fill="#FAFAFA"/>
<path d="M13.1286 14.0956C13.4992 14.0956 13.8711 13.963 14.1664 13.6942C14.7969 13.121 14.8439 12.1452 14.2707 11.5147C13.6969 10.8843 12.7217 10.8379 12.0907 11.411L12.0901 11.4117C11.4596 11.9848 11.4138 12.96 11.987 13.5911C12.2914 13.9256 12.7091 14.0956 13.1286 14.0956Z" fill="#FAFAFA"/>
<path d="M60.783 60.3096L60.7824 60.3108C60.2092 60.9413 60.2562 61.9165 60.8866 62.4897C61.182 62.7585 61.5532 62.8911 61.9239 62.8911C62.3434 62.8911 62.7617 62.7205 63.0661 62.3854C63.6399 61.755 63.5929 60.7792 62.9624 60.206C62.332 59.6328 61.3562 59.6792 60.783 60.3096Z" fill="#FAFAFA"/>
</svg>
