<svg width="491" height="491" viewBox="0 0 491 491" fill="none" xmlns="http://www.w3.org/2000/svg">
<g clip-path="url(#clip0)">
<path d="M490.68 266.32C490.691 272.211 485.923 276.995 480.032 277.006C477.192 277.011 474.467 275.883 472.461 273.872L245.346 46.7358L18.2323 273.872C13.9953 277.965 7.24227 277.847 3.14927 273.61C-0.842727 269.476 -0.842727 262.923 3.14927 258.79L237.816 24.1228C241.981 19.9588 248.733 19.9588 252.899 24.1228L487.565 258.789C489.56 260.788 490.68 263.496 490.68 266.32Z" fill="#2B2D42"/>
<path d="M490.68 458.32C490.691 464.211 485.923 468.995 480.032 469.006C477.192 469.011 474.467 467.883 472.461 465.872L245.346 238.736L18.2323 465.872C14.0613 470.043 7.29925 470.043 3.12825 465.872C-1.04275 461.701 -1.04275 454.939 3.12825 450.768L237.795 216.101C241.96 211.937 248.712 211.937 252.878 216.101L487.544 450.768C489.551 452.769 490.68 455.486 490.68 458.32Z" fill="#2B2D42"/>
</g>
<defs>
<clipPath id="clip0">
<rect width="490.8" height="490.8" fill="white"/>
</clipPath>
</defs>
</svg>
