<svg width="88" height="88" viewBox="0 0 88 88" fill="none" xmlns="http://www.w3.org/2000/svg">
<g clip-path="url(#clip0)">
<path d="M30.69 46.7108C31.4091 46.6484 31.9415 46.015 31.8793 45.2958L30.5406 29.8522C30.4662 28.9956 30.8669 28.2271 31.6128 27.7962C32.3573 27.3658 33.223 27.403 33.9284 27.8964L65.5216 49.979C65.7497 50.1384 66.0107 50.2149 66.2692 50.2149C66.6815 50.2149 67.0873 50.0203 67.3415 49.6566C67.7551 49.065 67.6106 48.2502 67.019 47.8366L35.426 25.7541C33.889 24.6798 31.9265 24.5954 30.3049 25.5333C28.682 26.4706 27.7745 28.2121 27.9365 30.0782L29.275 45.5218C29.3374 46.2408 29.9724 46.773 30.69 46.7108Z" fill="#DFDFDF"/>
<path d="M79.0951 56.277L71.7459 51.1402C71.1543 50.7267 70.3398 50.8712 69.926 51.4628C69.5125 52.0544 69.6569 52.8692 70.2485 53.2827L77.5977 58.4195C78.838 59.2867 78.9215 60.5932 78.5859 61.5268C78.2503 62.46 77.3567 63.4146 75.8455 63.2929L54.5952 61.5904C53.5174 61.5037 52.4551 61.7443 51.5258 62.2835C50.5893 62.823 49.8498 63.6235 49.3875 64.5976L40.2372 83.8515C39.5879 85.2182 38.3132 85.5165 37.3371 85.3403C36.361 85.1642 35.2716 84.4387 35.1414 82.9316L32.3568 50.8034C32.2944 50.0844 31.6608 49.5526 30.9418 49.6142C30.2226 49.6766 29.6903 50.3101 29.7525 51.0292L32.5371 83.1571C32.7457 85.5709 34.4879 87.4821 36.8725 87.9127C37.1996 87.9718 37.5249 88.0005 37.8457 88.0005C39.8645 88.0005 41.701 86.8619 42.5981 84.9735L51.7488 65.7189C51.9825 65.2265 52.3565 64.8217 52.8341 64.5465C53.3048 64.2736 53.8408 64.1522 54.3862 64.1961L75.6366 65.8986C78.0549 66.0934 80.226 64.6912 81.0455 62.4112C81.8654 60.1307 81.0814 57.6656 79.0951 56.277Z" fill="#DFDFDF"/>
<path d="M36.4764 36.2202C35.8513 36.5811 35.6372 37.3804 35.9981 38.0055L48.5321 59.7152C48.7741 60.1344 49.2134 60.3688 49.6651 60.3688C49.8867 60.3688 50.1117 60.3124 50.3173 60.1935C50.9424 59.8326 51.1565 59.0333 50.7957 58.4083L38.2617 36.6986C37.9008 36.0735 37.1015 35.8593 36.4764 36.2202Z" fill="#DFDFDF"/>
<path d="M29.0643 11.4775C29.786 11.4775 30.3712 10.8923 30.3712 10.1705V1.30693C30.3712 0.585156 29.786 0 29.0643 0C28.3425 0 27.7573 0.585156 27.7573 1.30693V10.1705C27.7573 10.8923 28.3425 11.4775 29.0643 11.4775Z" fill="#DFDFDF"/>
<path d="M15.0513 6.5703C14.5409 6.0599 13.7133 6.0599 13.2031 6.5703C12.6927 7.0807 12.6927 7.90807 13.2031 8.41847L19.4705 14.686C19.7256 14.9413 20.0601 15.0688 20.3945 15.0688C20.7289 15.0688 21.0635 14.9413 21.3186 14.686C21.829 14.1756 21.829 13.3482 21.3186 12.8378L15.0513 6.5703Z" fill="#DFDFDF"/>
<path d="M18.1106 22.431C18.1106 21.7092 17.5254 21.124 16.8037 21.124H7.94023C7.21846 21.124 6.6333 21.7092 6.6333 22.431C6.6333 23.1527 7.21846 23.7379 7.94023 23.7379H16.8037C17.5254 23.7379 18.1106 23.1527 18.1106 22.431Z" fill="#DFDFDF"/>
<path d="M40.0186 22.431C40.0186 23.1527 40.6037 23.7379 41.3255 23.7379H50.1891C50.911 23.7379 51.496 23.1527 51.496 22.431C51.496 21.7092 50.911 21.124 50.1891 21.124H41.3255C40.6037 21.124 40.0186 21.709 40.0186 22.431Z" fill="#DFDFDF"/>
<path d="M19.4705 30.1767L13.2031 36.4443C12.6927 36.9547 12.6927 37.7822 13.2031 38.2924C13.4582 38.5477 13.7928 38.6753 14.1272 38.6753C14.4616 38.6753 14.7962 38.5477 15.0513 38.2924L21.3186 32.0249C21.829 31.5145 21.829 30.687 21.3186 30.1767C20.8084 29.6663 19.9809 29.6663 19.4705 30.1767Z" fill="#DFDFDF"/>
<path d="M37.7346 15.0688C38.069 15.0688 38.4036 14.9412 38.6587 14.6859L44.9262 8.41841C45.4366 7.90801 45.4366 7.08046 44.9262 6.57023C44.4156 6.05983 43.5883 6.06001 43.0779 6.57023L36.8105 12.8378C36.3001 13.3482 36.3001 14.1757 36.8105 14.6859C37.0656 14.9412 37.4002 15.0688 37.7346 15.0688Z" fill="#DFDFDF"/>
</g>
<defs>
<clipPath id="clip0">
<rect width="88" height="88" fill="white"/>
</clipPath>
</defs>
</svg>
