<svg width="500" height="500" viewBox="0 0 500 500" fill="none" xmlns="http://www.w3.org/2000/svg">
<circle cx="250" cy="250" r="250" fill="#FAFAFA"/>
<path d="M249.553 71.4492C151.337 71.4492 71.4493 151.336 71.4493 249.546C71.4493 347.75 151.343 427.643 249.553 427.643C347.764 427.643 427.65 347.75 427.65 249.546C427.65 151.336 347.757 71.4492 249.553 71.4492ZM209.444 304.326H179.726L154.456 256.985C147.438 244.343 139.532 232.98 133.909 213.523H133.215C134.084 232.98 131.613 249.546 131.613 268.854V304.326H105.67V187.579H141.109L165.69 231.145C172.715 243.611 179.564 258.925 184.999 271.896H185.355C183.773 252.439 183.5 238.487 183.5 220.587V187.579H209.443V304.326H209.444ZM239.941 310.812H222.202L259.788 181.093H277.501L239.941 310.812ZM359.665 304.326L350.539 271.896H316.65L308.225 304.326H280.647L316.65 187.579H351.752L388.637 304.326H359.665ZM333.339 207.037H332.975C331.217 213.523 329.46 221.753 327.527 228.589L320.509 252.438H346.667L339.299 228.589C337.184 221.579 335.089 213.523 333.339 207.037Z" fill="#010002"/>
</svg>
