<svg width="500" height="500" viewBox="0 0 500 500" fill="none" xmlns="http://www.w3.org/2000/svg">
<circle cx="250" cy="250" r="250" fill="#EFEFEF"/>
<path d="M331.907 115.471C331.907 115.471 289.386 117.91 254.352 174.909C253.916 175.618 253.491 176.323 253.068 177.03L256.836 200.236H241.12C235.299 213.876 232.248 226.204 231.545 236.738L244.531 250.002H232.007C234.371 265.4 243.339 274.601 256.627 274.983C275.637 275.529 293.571 267.638 302.459 228.42C303.368 224.416 304.429 219.934 305.602 215.126L291.563 214.182L308.189 204.68C317.871 166.146 331.907 115.471 331.907 115.471Z" fill="#535FE1"/>
<path d="M272.956 384.531C272.956 384.531 275.869 378.321 275.795 378.491C276.308 377.323 280.832 367.622 290.709 367.622C295.435 367.622 299.316 369.164 305.747 371.725C318.569 376.823 337.949 384.531 380.398 384.531H384.53L355.036 346.159C334.259 344.099 323.064 339.645 314.279 336.151C306.833 333.188 299.797 330.393 290.709 330.393C268.519 330.393 254.678 350.008 250 361.598C245.321 350.008 231.481 330.393 209.29 330.393C200.202 330.393 193.168 333.188 185.723 336.151C176.937 339.645 165.743 344.099 144.966 346.159L115.471 384.531H119.602C162.054 384.531 181.431 376.823 194.255 371.725C200.683 369.164 204.564 367.622 209.29 367.622C219.168 367.622 223.692 377.323 224.205 378.491C224.13 378.321 227.044 384.531 227.044 384.531H272.956Z" fill="#EDF2FA"/>
<path d="M388.865 381.198L359.371 342.828C358.451 341.629 357.078 340.866 355.574 340.717C335.565 338.733 324.881 334.483 316.293 331.068C308.697 328.046 300.845 324.923 290.709 324.923C275.274 324.923 263.473 333.155 255.469 342.484V342.28C259.927 332.001 271.81 315.78 290.272 315.78C298.214 315.78 304.4 318.242 311.566 321.091C317.545 323.469 324.988 326.429 335.867 328.716C338.825 329.337 341.723 327.444 342.345 324.487C342.965 321.533 341.072 318.633 338.116 318.013C328.156 315.919 321.491 313.268 315.605 310.927C308.086 307.936 300.31 304.844 290.272 304.844C271.053 304.844 257.526 317.722 250 329.452C242.474 317.722 228.947 304.844 209.726 304.844C199.69 304.844 191.912 307.936 184.39 310.929C175.903 314.304 165.339 318.507 145.553 320.467C142.548 320.766 140.354 323.444 140.651 326.449C140.95 329.455 143.629 331.649 146.634 331.351C167.95 329.237 179.789 324.529 188.434 321.091C195.597 318.242 201.783 315.78 209.726 315.78C228.189 315.78 240.075 332.004 244.531 342.283V342.484C236.525 333.155 224.726 324.921 209.288 324.921C199.156 324.921 191.301 328.046 183.7 331.069C175.117 334.483 164.435 338.733 144.423 340.717C142.922 340.866 141.548 341.629 140.627 342.828L111.134 381.198C109.863 382.85 109.643 385.079 110.564 386.95C111.485 388.815 113.386 390 115.469 390H384.53C386.613 390 388.515 388.815 389.436 386.95C390.357 385.079 390.136 382.85 388.865 381.198ZM290.709 335.859C298.749 335.859 305.006 338.348 312.256 341.232C320.663 344.577 332.066 349.111 352.128 351.351L373.371 378.987C336.823 378.199 319.476 371.3 307.767 366.641C300.972 363.94 296.485 362.154 290.709 362.154C280.604 362.154 273.676 369.739 270.804 376.256C270.779 376.307 270.753 376.357 270.728 376.411L269.482 379.062H255.469V362.696C259.975 352.292 272.009 335.859 290.709 335.859ZM147.871 351.351C167.935 349.111 179.334 344.575 187.748 341.229C194.992 338.348 201.251 335.859 209.288 335.859C227.988 335.859 240.024 352.292 244.531 362.696V379.062H230.515L229.272 376.411C229.246 376.357 229.221 376.307 229.195 376.256C226.322 369.739 219.396 362.154 209.29 362.154C203.516 362.154 199.027 363.94 192.232 366.641C180.523 371.3 163.175 378.199 126.629 378.987L147.871 351.351ZM196.276 376.804C202.296 374.409 205.611 373.092 209.288 373.092C214.007 373.092 216.97 376.804 218.337 379.062H190.489C192.57 378.279 194.484 377.518 196.276 376.804ZM281.663 379.062C283.03 376.804 285.993 373.092 290.709 373.092C294.388 373.092 297.703 374.409 303.726 376.807C305.517 377.518 307.432 378.279 309.511 379.062H281.663Z" fill="black"/>
<path d="M353.172 331.333L353.369 331.351C353.552 331.369 353.733 331.38 353.91 331.38C356.692 331.38 359.07 329.268 359.347 326.444C359.642 323.439 357.447 320.762 354.44 320.467L354.245 320.449C351.24 320.15 348.563 322.348 348.267 325.353C347.97 328.36 350.165 331.035 353.172 331.333Z" fill="black"/>
<path d="M231.541 244.552C230.12 244.674 228.794 245.347 227.858 246.439C226.818 247.65 226.361 249.254 226.602 250.831C228.868 265.594 236.726 275.682 248.197 279.141C247.934 281.209 247.691 283.278 247.473 285.355L244.561 313.123C244.247 316.126 246.426 318.818 249.43 319.133C249.624 319.154 249.816 319.163 250.007 319.163C252.771 319.163 255.144 317.075 255.439 314.264L258.351 286.496C258.562 284.476 258.799 282.466 259.051 280.46C284.489 280.147 300.02 263.926 307.794 229.629C308.659 225.813 309.707 221.37 310.914 216.42C311.298 214.852 310.968 213.197 310.013 211.894C309.658 211.411 309.231 210.994 308.752 210.657L310.904 209.426C312.196 208.689 313.132 207.455 313.493 206.011C323.049 167.986 337.037 117.436 337.177 116.93C337.649 115.229 337.272 113.407 336.162 112.036C335.056 110.662 333.347 109.904 331.594 110.01C329.742 110.115 285.807 113.29 249.695 172.042C249.246 172.771 248.81 173.493 248.379 174.217C247.714 175.324 247.464 176.631 247.669 177.904L250.408 194.765H241.122C238.93 194.765 236.952 196.073 236.091 198.087C230.236 211.808 226.871 224.688 226.089 236.373C225.985 237.926 226.548 239.451 227.638 240.564L231.541 244.552ZM303.455 201.086L288.85 209.433C286.756 210.629 285.692 213.056 286.232 215.406C286.773 217.755 288.79 219.475 291.194 219.638L298.768 220.146C298.166 222.684 297.617 225.044 297.125 227.21C289.232 262.04 274.655 268.915 260.654 269.496C268.678 221.114 288.981 176.182 320.049 138.108C315.277 155.711 308.764 180.068 303.455 201.086ZM244.777 205.705H256.836C258.438 205.705 259.962 205 261.001 203.778C262.04 202.556 262.491 200.941 262.235 199.358L258.788 178.135C258.861 178.013 258.936 177.893 259.011 177.772C276.253 149.721 295.26 135.761 308.17 128.989C311.227 127.384 314.093 126.101 316.71 125.067C297.892 146.916 282.452 171.34 270.792 197.745C260.839 220.283 253.807 243.884 249.801 268.113C243.846 265.674 240.652 260.453 238.939 255.468H244.531C246.734 255.468 248.72 254.148 249.573 252.119C250.425 250.092 249.979 247.748 248.439 246.174L237.202 234.698C238.086 225.811 240.628 216.083 244.777 205.705Z" fill="#030303"/>
</svg>
